<svg width="259" height="231" viewBox="0 0 259 231" fill="none" xmlns="http://www.w3.org/2000/svg">
<g opacity="0.6">
<path d="M132.262 169.77C132.262 172.391 105.867 174.514 73.3096 174.514C40.7522 174.514 14.3569 172.389 14.3569 169.77C14.3569 167.151 40.7522 165.024 73.3096 165.024C105.867 165.024 132.262 167.148 132.262 169.77Z" fill="#888DB7"/>
<path d="M253.984 169.77C253.984 172.391 227.588 174.514 195.031 174.514C162.474 174.514 136.078 172.389 136.078 169.77C136.078 167.151 162.474 165.024 195.031 165.024C227.588 165.024 253.984 167.148 253.984 169.77Z" fill="#888DB7"/>
<path d="M140.181 200C191.442 200 232.998 197.876 232.998 195.256C232.998 192.636 191.442 190.512 140.181 190.512C88.9197 190.512 47.3641 192.636 47.3641 195.256C47.3641 197.876 88.9197 200 140.181 200Z" fill="#888DB7"/>
<path d="M22.5013 8.67569V4.65186" stroke="white" stroke-width="4.942" stroke-miterlimit="10"/>
<path d="M20.4896 6.66235H24.5146" stroke="white" stroke-width="4.942" stroke-miterlimit="10"/>
<path d="M152.125 21.8153V17.7915" stroke="white" stroke-width="4.942" stroke-miterlimit="10"/>
<path d="M150.112 19.8037H154.138" stroke="white" stroke-width="4.942" stroke-miterlimit="10"/>
<path d="M256.498 73.9679V69.9441" stroke="white" stroke-width="4.942" stroke-miterlimit="10"/>
<path d="M254.485 71.9563H258.511" stroke="white" stroke-width="4.942" stroke-miterlimit="10"/>
<path d="M191.567 66.6555V62.6328" stroke="white" stroke-width="4.942" stroke-miterlimit="10"/>
<path d="M189.553 64.6433H193.579" stroke="white" stroke-width="4.942" stroke-miterlimit="10"/>
<path d="M77.0869 23.9958V19.9719" stroke="white" stroke-width="4.942" stroke-miterlimit="10"/>
<path d="M75.0736 21.9854H79.0998" stroke="white" stroke-width="4.942" stroke-miterlimit="10"/>
<path d="M3.01331 70.6015V66.5776" stroke="white" stroke-width="4.942" stroke-miterlimit="10"/>
<path d="M1 68.5911H5.02616" stroke="white" stroke-width="4.942" stroke-miterlimit="10"/>
<g opacity="0.84">
<path d="M229.003 36.2045L230.338 33.693C230.312 31.6079 229.601 29.5893 228.315 27.9477C227.029 26.3061 225.239 25.1325 223.221 24.6072C221.202 24.082 219.066 24.2343 217.142 25.0407C215.218 25.8472 213.612 27.263 212.571 29.0705L227.106 36.7855C227.434 36.96 227.819 36.9967 228.175 36.8878C228.531 36.7788 228.829 36.533 229.003 36.2045Z" fill="#3EA69B"/>
<path d="M225.283 25.4112C226.791 26.2128 228.055 27.4044 228.944 28.8613C229.832 30.3183 230.313 31.9872 230.336 33.6938L237.657 19.9204C237.832 19.5918 237.869 19.2075 237.76 18.8518C237.651 18.4962 237.405 18.1984 237.076 18.024L210.961 4.16256C210.632 3.98813 210.248 3.95135 209.892 4.06031C209.536 4.16928 209.238 4.41505 209.064 4.74357L200.408 21.028C200.322 21.1906 200.268 21.3687 200.251 21.5521C200.233 21.7354 200.252 21.9204 200.306 22.0965C200.36 22.2726 200.448 22.4363 200.565 22.5784C200.682 22.7204 200.826 22.838 200.989 22.9243L212.569 29.071C213.803 26.9352 215.818 25.3606 218.189 24.6781C220.56 23.9956 223.103 24.2584 225.283 25.4112Z" fill="#44C4A1"/>
<path d="M213.512 9.96238L210.566 8.39877C210.427 8.32487 210.264 8.30929 210.113 8.35545C209.963 8.40162 209.836 8.50575 209.762 8.64495L208.197 11.5899C208.123 11.7291 208.107 11.892 208.154 12.0426C208.2 12.1933 208.304 12.3195 208.443 12.3934L211.389 13.957C211.528 14.0309 211.691 14.0465 211.842 14.0003C211.993 13.9542 212.119 13.85 212.193 13.7108L213.758 10.7659C213.832 10.6267 213.848 10.4638 213.802 10.3131C213.756 10.1625 213.651 10.0363 213.512 9.96238Z" fill="#FCD462"/>
<path d="M215.432 18.5611L206.898 14.031L206.334 15.0924L214.868 19.6225L215.432 18.5611Z" fill="#EBF0F3"/>
<path d="M215.676 22.8406L205.177 17.2678L204.613 18.3292L215.112 23.902L215.676 22.8406Z" fill="#EBF0F3"/>
<path d="M207.736 22.7477L203.469 20.4827L202.905 21.544L207.172 23.809L207.736 22.7477Z" fill="#3A556A"/>
<path d="M214.274 26.2183L210.007 23.9534L209.443 25.0147L213.71 27.2796L214.274 26.2183Z" fill="#3A556A"/>
<path d="M220.81 29.6878L216.543 27.4229L215.979 28.4841L220.246 30.7491L220.81 29.6878Z" fill="#3A556A"/>
<path d="M227.347 33.1575L223.079 30.8926L222.515 31.9539L226.782 34.2188L227.347 33.1575Z" fill="#3A556A"/>
<path d="M235.043 16.9694L231.834 15.2661C231.794 15.2449 231.747 15.2405 231.704 15.2537C231.661 15.2669 231.625 15.2968 231.604 15.3367L229.046 20.1487C229.031 20.1784 229.024 20.2119 229.028 20.2451C229.031 20.2782 229.045 20.3097 229.066 20.3354C229.087 20.3611 229.115 20.38 229.147 20.3898C229.179 20.3995 229.213 20.3997 229.245 20.3902L231.541 19.6872L232.243 21.9807C232.253 22.0128 232.272 22.0413 232.298 22.0625C232.324 22.0838 232.356 22.0969 232.389 22.1002C232.423 22.1035 232.456 22.0969 232.486 22.0811C232.515 22.0654 232.54 22.0412 232.556 22.0117L235.113 17.1996C235.135 17.1598 235.139 17.1131 235.126 17.0699C235.113 17.0268 235.083 16.9906 235.043 16.9694Z" fill="#FD3018"/>
<path d="M235.043 16.9693L233.438 16.1177L231.541 19.6875L232.243 21.9806C232.253 22.0125 232.272 22.0408 232.298 22.0619C232.324 22.083 232.356 22.096 232.389 22.0993C232.423 22.1026 232.456 22.096 232.486 22.0804C232.515 22.0647 232.54 22.0407 232.556 22.0113L235.113 17.1995C235.134 17.1596 235.139 17.113 235.125 17.0698C235.112 17.0266 235.082 16.9905 235.043 16.9693Z" fill="#E61E14"/>
</g>
<g opacity="0.89">
<path d="M177.878 43.529V67.1044C177.877 67.3388 177.784 67.5634 177.617 67.7288C177.451 67.8942 177.226 67.9869 176.991 67.9864H154.296C154.061 67.9869 153.836 67.8942 153.67 67.7288C153.504 67.5634 153.41 67.3388 153.409 67.1044V43.529C153.411 43.0603 153.598 42.6114 153.931 42.2807C154.263 41.9501 154.713 41.7648 155.182 41.7654H176.105C176.574 41.7648 177.024 41.9501 177.356 42.2807C177.689 42.6114 177.876 43.0603 177.878 43.529Z" fill="#333E73"/>
<path d="M177.878 43.529V67.1044C177.885 67.331 177.801 67.5511 177.646 67.7164C177.491 67.8818 177.277 67.9789 177.05 67.9864H166.448V41.7654H176.221C176.675 41.7806 177.103 41.9748 177.414 42.3053C177.724 42.6358 177.891 43.0758 177.878 43.529Z" fill="#333E73"/>
<path d="M171.772 61.8056V67.1583C171.772 67.3777 171.685 67.5881 171.53 67.7433C171.375 67.8985 171.164 67.9857 170.944 67.9858H160.343C160.123 67.9857 159.912 67.8985 159.757 67.7433C159.602 67.5881 159.515 67.3777 159.515 67.1583V61.8056C159.515 61.3666 159.69 60.9458 160 60.6354C160.311 60.3249 160.732 60.1504 161.171 60.1499H170.116C170.556 60.1505 170.976 60.3252 171.287 60.6355C171.597 60.9459 171.772 61.3667 171.772 61.8056Z" fill="#EEF4FF"/>
<path d="M171.996 61.8056V67.1583C171.996 67.3777 171.909 67.5881 171.754 67.7433C171.598 67.8985 171.388 67.9857 171.168 67.9858H165.867V60.1499H170.34C170.779 60.1504 171.2 60.3249 171.511 60.6354C171.821 60.9458 171.996 61.3666 171.996 61.8056Z" fill="#D9E6FC"/>
<path d="M159.492 48.6794H158.167C157.947 48.6794 157.736 48.5922 157.581 48.4369C157.426 48.2817 157.339 48.0711 157.339 47.8516C157.339 47.632 157.426 47.4214 157.581 47.2662C157.736 47.1109 157.947 47.0237 158.167 47.0237H159.492C159.712 47.0237 159.922 47.1109 160.078 47.2662C160.233 47.4214 160.32 47.632 160.32 47.8516C160.32 48.0711 160.233 48.2817 160.078 48.4369C159.922 48.5922 159.712 48.6794 159.492 48.6794Z" fill="#EEF4FF"/>
<path d="M159.492 52.2112H158.167C157.947 52.2112 157.736 52.1239 157.581 51.9687C157.426 51.8134 157.339 51.6029 157.339 51.3833C157.339 51.1637 157.426 50.9532 157.581 50.7979C157.736 50.6426 157.947 50.5554 158.167 50.5554H159.492C159.712 50.5554 159.922 50.6426 160.078 50.7979C160.233 50.9532 160.32 51.1637 160.32 51.3833C160.32 51.6029 160.233 51.8134 160.078 51.9687C159.922 52.1239 159.712 52.2112 159.492 52.2112Z" fill="#EEF4FF"/>
<path d="M159.492 55.7429H158.167C157.947 55.7429 157.736 55.6557 157.581 55.5004C157.426 55.3452 157.339 55.1346 157.339 54.915C157.339 54.6955 157.426 54.4849 157.581 54.3296C157.736 54.1744 157.947 54.0872 158.167 54.0872H159.492C159.712 54.0872 159.922 54.1744 160.078 54.3296C160.233 54.4849 160.32 54.6955 160.32 54.915C160.32 55.1346 160.233 55.3452 160.078 55.5004C159.922 55.6557 159.712 55.7429 159.492 55.7429Z" fill="#EEF4FF"/>
<path d="M173.121 56.0647H171.796C171.576 56.0647 171.365 55.9775 171.21 55.8222C171.055 55.6669 170.967 55.4564 170.967 55.2368C170.967 55.0172 171.055 54.8067 171.21 54.6514C171.365 54.4962 171.576 54.4089 171.796 54.4089H173.121C173.34 54.4089 173.551 54.4962 173.707 54.6514C173.862 54.8067 173.949 55.0172 173.949 55.2368C173.949 55.4564 173.862 55.6669 173.707 55.8222C173.551 55.9775 173.34 56.0647 173.121 56.0647Z" fill="#D9E6FC"/>
<path d="M173.121 52.3186H171.796C171.576 52.3186 171.365 52.2314 171.21 52.0761C171.055 51.9209 170.967 51.7103 170.967 51.4907C170.967 51.2711 171.055 51.0606 171.21 50.9053C171.365 50.7501 171.576 50.6628 171.796 50.6628H173.121C173.34 50.6628 173.551 50.7501 173.707 50.9053C173.862 51.0606 173.949 51.2711 173.949 51.4907C173.949 51.7103 173.862 51.9209 173.707 52.0761C173.551 52.2314 173.34 52.3186 173.121 52.3186Z" fill="#D9E6FC"/>
<path d="M173.121 48.5722H171.796C171.576 48.5722 171.365 48.485 171.21 48.3298C171.055 48.1745 170.967 47.9639 170.967 47.7444C170.967 47.5248 171.055 47.3142 171.21 47.159C171.365 47.0037 171.576 46.9165 171.796 46.9165H173.121C173.34 46.9165 173.551 47.0037 173.707 47.159C173.862 47.3142 173.949 47.5248 173.949 47.7444C173.949 47.9639 173.862 48.1745 173.707 48.3298C173.551 48.485 173.34 48.5722 173.121 48.5722Z" fill="#D9E6FC"/>
<path d="M180.528 67.9864V69.8623C180.515 70.3137 180.323 70.7413 179.995 71.0517C179.666 71.362 179.229 71.5297 178.777 71.5181H152.51C152.058 71.5297 151.62 71.362 151.292 71.0517C150.964 70.7413 150.772 70.3137 150.759 69.8623V67.9864C150.772 67.535 150.964 67.1074 151.292 66.7971C151.62 66.4868 152.058 66.319 152.51 66.3306H178.777C179.229 66.319 179.666 66.4868 179.995 66.7971C180.323 67.1074 180.515 67.535 180.528 67.9864Z" fill="#333E73"/>
<path d="M180.528 67.9865V69.8625C180.528 70.3015 180.353 70.7224 180.043 71.0328C179.732 71.3432 179.311 71.5178 178.872 71.5183H166.448V66.3308H178.872C179.311 66.3313 179.732 66.5059 180.043 66.8163C180.353 67.1267 180.528 67.5476 180.528 67.9865Z" fill="#1F2859"/>
<path d="M168.666 48.8407H167.679C167.596 48.4977 167.456 48.1714 167.263 47.8758H168.667C168.764 47.8762 168.861 47.8575 168.952 47.8207C169.042 47.7838 169.124 47.7295 169.193 47.6609C169.263 47.5923 169.318 47.5107 169.356 47.4208C169.393 47.3309 169.413 47.2345 169.413 47.137C169.414 47.0395 169.395 46.9429 169.358 46.8526C169.321 46.7623 169.267 46.6802 169.199 46.6109C169.13 46.5416 169.048 46.4866 168.958 46.4488C168.868 46.411 168.772 46.3914 168.674 46.3909H162.918C162.721 46.3909 162.532 46.4691 162.392 46.6083C162.253 46.7476 162.175 46.9364 162.175 47.1333C162.175 47.3302 162.253 47.5191 162.392 47.6583C162.532 47.7975 162.721 47.8758 162.918 47.8758H164.565C164.89 47.869 165.21 47.9565 165.487 48.1277C165.764 48.299 165.985 48.5466 166.124 48.8407H162.915C162.718 48.8407 162.529 48.9189 162.39 49.0582C162.251 49.1974 162.172 49.3862 162.172 49.5831C162.172 49.78 162.251 49.9689 162.39 50.1081C162.529 50.2474 162.718 50.3256 162.915 50.3256H166.124C166.033 50.4947 165.92 50.6518 165.79 50.7933C165.464 51.1116 165.027 51.29 164.571 51.2905H162.924C162.725 51.2935 162.534 51.3757 162.395 51.5191C162.255 51.6625 162.179 51.8553 162.182 52.0551C162.185 52.2566 162.268 52.4487 162.412 52.5898L166.526 56.4871C166.666 56.6249 166.855 56.7015 167.052 56.7001C167.248 56.6988 167.436 56.6195 167.574 56.4797C167.712 56.3399 167.788 56.1511 167.787 55.9548C167.785 55.7585 167.706 55.5708 167.566 55.433L167.544 55.4109L164.774 52.7907C165.551 52.7419 166.283 52.409 166.831 51.8553C167.254 51.4367 167.55 50.9063 167.683 50.3262H168.663C168.86 50.3262 169.049 50.2479 169.188 50.1087C169.328 49.9695 169.406 49.7806 169.406 49.5837C169.406 49.3868 169.328 49.198 169.188 49.0587C169.049 48.9195 168.86 48.8413 168.663 48.8413L168.666 48.8407Z" fill="#97DE3D"/>
</g>
<g opacity="0.86">
<path d="M46.958 15.6931C49.1146 14.9512 50.2605 12.6019 49.5174 10.4457C48.7743 8.28955 46.4236 7.14306 44.267 7.88495C42.1103 8.62685 40.9645 10.9762 41.7076 13.1323C42.4507 15.2885 44.8014 16.435 46.958 15.6931Z" fill="#F7D979"/>
<path d="M55.0134 9.275L60.6661 25.6766L42.3048 31.993L33.8409 7.43472L35.6366 8.06044C35.7036 8.08349 35.7764 8.08348 35.8434 8.06042C35.9105 8.03737 35.9678 7.99259 36.0065 7.93319L37.25 6.00018L39.4275 6.75812C39.4945 6.78117 39.5674 6.78116 39.6344 6.75811C39.7014 6.73505 39.7588 6.69027 39.7974 6.63087L41.0425 4.69552L43.2179 5.4542C43.2849 5.47724 43.3577 5.47723 43.4247 5.45418C43.4918 5.43112 43.5492 5.38634 43.5878 5.32694L44.835 3.39085L47.0104 4.14953C47.0774 4.17258 47.1503 4.17257 47.2173 4.14951C47.2843 4.12646 47.3417 4.08168 47.3803 4.02228L48.627 2.08637L50.8024 2.84505C50.8694 2.86871 50.9424 2.86902 51.0096 2.84591C51.0767 2.8228 51.1341 2.77765 51.1723 2.7178L52.206 1.11515C53.1129 3.76076 54.7583 8.5348 55.0134 9.275ZM55.1695 16.9156C55.1421 16.8365 55.0845 16.7715 55.0092 16.7348C54.934 16.6981 54.8473 16.6927 54.7681 16.7198L45.7867 19.8095C45.7074 19.8368 45.6423 19.8944 45.6055 19.9697C45.5688 20.045 45.5635 20.1318 45.5908 20.211C45.6181 20.2902 45.6758 20.3554 45.7511 20.3921C45.8265 20.4289 45.9133 20.4342 45.9926 20.407L54.974 17.3172C55.053 17.2896 55.1179 17.2319 55.1545 17.1567C55.1911 17.0814 55.1965 16.9948 55.1695 16.9156ZM55.6235 18.2328C55.5961 18.1537 55.5384 18.0888 55.4632 18.0521C55.388 18.0154 55.3013 18.01 55.2221 18.037L46.2406 21.1268C46.1614 21.154 46.0962 21.2116 46.0595 21.2869C46.0228 21.3622 46.0175 21.449 46.0448 21.5283C46.0721 21.6075 46.1298 21.6726 46.2051 21.7094C46.2805 21.7461 46.3673 21.7514 46.4465 21.7242L55.428 18.6345C55.4672 18.6209 55.5034 18.5997 55.5345 18.5722C55.5655 18.5446 55.5909 18.5112 55.609 18.4738C55.6271 18.4365 55.6377 18.3959 55.6402 18.3545C55.6426 18.313 55.6371 18.272 55.6235 18.2328ZM56.8413 21.7664C56.814 21.6872 56.7564 21.622 56.6811 21.5852C56.6058 21.5484 56.519 21.543 56.4397 21.5701L47.4583 24.6598C47.3824 24.6896 47.3209 24.7475 47.2867 24.8215C47.2525 24.8955 47.2483 24.9799 47.2749 25.057C47.3014 25.1341 47.3568 25.198 47.4293 25.2353C47.5019 25.2726 47.586 25.2805 47.6642 25.2572L56.6456 22.1675C56.7246 22.1399 56.7895 22.0821 56.8261 22.0069C56.8627 21.9317 56.8683 21.8456 56.8413 21.7664ZM57.2953 23.0836C57.2679 23.0045 57.2102 22.9395 57.135 22.9029C57.0598 22.8662 56.9731 22.8608 56.8939 22.8878L47.9124 25.9776C47.8332 26.0048 47.7681 26.0624 47.7313 26.1377C47.6946 26.213 47.6893 26.2998 47.7166 26.3791C47.7439 26.4583 47.8016 26.5234 47.8769 26.5602C47.9523 26.5969 48.0391 26.6022 48.1183 26.575L57.0998 23.4853C57.1391 23.4717 57.1752 23.4505 57.2063 23.4229C57.2373 23.3954 57.2627 23.362 57.2808 23.3246C57.2989 23.2873 57.3095 23.2467 57.312 23.2053C57.3144 23.1638 57.3089 23.1228 57.2953 23.0836ZM50.1134 10.2396C49.8065 9.34905 49.2423 8.56939 48.4923 7.99919C47.7422 7.429 46.84 7.09387 45.8996 7.0362C44.9593 6.97853 44.0231 7.2009 43.2094 7.67519C42.3957 8.14948 41.7411 8.85439 41.3283 9.70077C40.9156 10.5472 40.7632 11.497 40.8905 12.4302C41.0179 13.3633 41.4191 14.2379 42.0436 14.9434C42.6681 15.6488 43.4877 16.1533 44.3988 16.3932C45.3099 16.6331 46.2716 16.5975 47.1623 16.291C48.3559 15.8791 49.337 15.0106 49.8903 13.876C50.4436 12.7415 50.5238 11.4336 50.1134 10.2396ZM46.5331 27.3821L45.7104 24.9951C45.683 24.916 45.6253 24.851 45.5501 24.8144C45.4749 24.7777 45.3882 24.7723 45.309 24.7993L42.9194 25.6214C42.8401 25.6487 42.775 25.7062 42.7382 25.7815C42.7014 25.8567 42.696 25.9435 42.7232 26.0227L43.5462 28.4108C43.5737 28.49 43.6314 28.555 43.7067 28.5917C43.7821 28.6284 43.8689 28.6336 43.9481 28.6064L46.3362 27.7849C46.3755 27.7715 46.4118 27.7505 46.4429 27.7231C46.4741 27.6956 46.4995 27.6623 46.5177 27.625C46.536 27.5877 46.5467 27.5472 46.5492 27.5058C46.5517 27.4643 46.546 27.4228 46.5324 27.3836L46.5331 27.3821ZM44.8614 22.5319L44.0388 20.1448C44.0114 20.0658 43.9537 20.0008 43.8785 19.9641C43.8033 19.9274 43.7166 19.922 43.6374 19.9491L41.2477 20.7712C41.1685 20.7984 41.1034 20.856 41.0666 20.9312C41.0298 21.0064 41.0244 21.0932 41.0516 21.1725L41.8752 23.5622C41.9026 23.6413 41.9603 23.7064 42.0357 23.743C42.111 23.7797 42.1978 23.785 42.2771 23.7577L44.6651 22.9362C44.7044 22.9229 44.7407 22.9019 44.7719 22.8744C44.803 22.847 44.8284 22.8137 44.8467 22.7764C44.8649 22.7391 44.8756 22.6986 44.8781 22.6571C44.8806 22.6157 44.8749 22.5741 44.8613 22.5349L44.8614 22.5319Z" fill="#EDEBED"/>
<path d="M45.2125 25.4991L43.4209 26.1155L44.0383 27.9067L45.8299 27.2904L45.2125 25.4991Z" fill="#FF8587"/>
<path d="M43.5417 20.6495L41.7501 21.2659L42.3675 23.0571L44.1591 22.4408L43.5417 20.6495Z" fill="#FF8587"/>
<path d="M55.6107 9.07142L61.3657 25.7699C61.393 25.8492 61.3877 25.936 61.3509 26.0114C61.3142 26.0868 61.249 26.1444 61.1697 26.1717L42.2119 32.6935C42.1326 32.7206 42.0458 32.7151 41.9705 32.6783C41.8952 32.6415 41.8376 32.5764 41.8103 32.4972L33.0318 7.02574C33.0473 7.07093 33.0729 7.112 33.1066 7.14585C33.1404 7.17971 33.1813 7.20546 33.2265 7.22115L33.8406 7.43496L42.3043 31.9928L60.6656 25.6763L55.0137 9.27681C54.7586 8.5366 53.1132 3.76255 52.2018 1.11788L52.5512 0.577387C52.5963 0.506923 52.6116 0.421445 52.5938 0.339681C52.576 0.257918 52.5264 0.186536 52.4561 0.141177C52.4178 0.116025 52.3746 0.0993304 52.3294 0.0922123C52.2842 0.0850941 52.238 0.0877165 52.1938 0.0999024C52.2721 0.0762538 52.3565 0.0839313 52.4292 0.121315C52.5019 0.158698 52.5573 0.222862 52.5836 0.300257C53.4278 2.73752 55.3332 8.26627 55.6107 9.07142Z" fill="black"/>
<path d="M52.4586 0.137603C52.5289 0.182978 52.5785 0.254383 52.5963 0.336174C52.6141 0.417964 52.5988 0.503471 52.5537 0.573958L52.2045 1.1157L51.9938 0.504111C51.9667 0.425488 51.9717 0.339366 52.0077 0.264445C52.0438 0.189524 52.1079 0.131852 52.1862 0.103952L52.2002 0.0991485C52.2436 0.0871686 52.289 0.084401 52.3334 0.0910241C52.3779 0.0976472 52.4206 0.113514 52.4586 0.137603Z" fill="black"/>
<path d="M52.02 0.233085C52.0591 0.172347 52.1177 0.126746 52.1862 0.103794C52.1078 0.131729 52.0436 0.189506 52.0076 0.264553C51.9716 0.339601 51.9667 0.425844 51.994 0.504515L52.2045 1.1156L51.1707 2.71888C51.1323 2.77873 51.0748 2.82388 51.0076 2.84706C50.9403 2.86985 50.8673 2.86961 50.8001 2.84637L48.627 2.08826L47.3801 4.02494C47.3414 4.08436 47.284 4.12916 47.217 4.15222C47.15 4.17529 47.0772 4.17529 47.0101 4.15224L44.8343 3.39326L43.5873 5.32994C43.5487 5.38936 43.4913 5.43416 43.4243 5.45722C43.3572 5.48029 43.2844 5.48029 43.2173 5.45724L41.0448 4.69715L39.7978 6.63383C39.7592 6.69325 39.7018 6.73805 39.6347 6.76111C39.5677 6.78418 39.4949 6.78418 39.4278 6.76113L37.2531 6.00178L36.0077 7.9379C35.9691 7.99732 35.9117 8.04212 35.8447 8.06519C35.7776 8.08825 35.7048 8.08826 35.6378 8.0652L33.8399 7.43745L33.629 6.82529C33.6139 6.78126 33.5894 6.74107 33.557 6.70756C33.5247 6.67405 33.4855 6.64803 33.442 6.63134L35.609 7.38735L36.8565 5.45049C36.8951 5.39107 36.9525 5.34627 37.0196 5.32321C37.0866 5.30014 37.1594 5.30014 37.2265 5.32319L39.4025 6.08271L40.6476 4.14605C40.6863 4.08663 40.7437 4.04183 40.8107 4.01876C40.8777 3.9957 40.9506 3.99569 41.0176 4.01875L43.1947 4.77789L44.4404 2.84105C44.479 2.78163 44.5364 2.73683 44.6034 2.71376C44.6705 2.6907 44.7433 2.69069 44.8104 2.71375L46.9864 3.47326L48.2337 1.53587C48.2723 1.47645 48.3297 1.43165 48.3967 1.40858C48.4638 1.38552 48.5366 1.38551 48.6036 1.40856L50.7796 2.16808L52.02 0.233085Z" fill="black"/>
<path d="M54.769 16.7175C54.8471 16.6943 54.9313 16.7021 55.0039 16.7395C55.0764 16.7768 55.1318 16.8407 55.1584 16.9178C55.1849 16.9949 55.1807 17.0794 55.1465 17.1534C55.1123 17.2275 55.0508 17.2854 54.9749 17.3152L45.9915 20.4064C45.9133 20.4296 45.8292 20.4218 45.7566 20.3844C45.684 20.3471 45.6287 20.2832 45.6021 20.2061C45.5755 20.1289 45.5798 20.0445 45.614 19.9705C45.6482 19.8964 45.7096 19.8385 45.7856 19.8087L54.769 16.7175Z" fill="black"/>
<path d="M55.2227 18.0347C55.3009 18.0114 55.385 18.0193 55.4576 18.0566C55.5302 18.0939 55.5855 18.1578 55.6121 18.235C55.6387 18.3121 55.6344 18.3965 55.6002 18.4706C55.5661 18.5446 55.5046 18.6026 55.4286 18.6324L46.4453 21.7235C46.3671 21.7468 46.2829 21.7389 46.2103 21.7016C46.1378 21.6643 46.0824 21.6004 46.0559 21.5232C46.0293 21.4461 46.0335 21.3617 46.0677 21.2876C46.1019 21.2136 46.1634 21.1556 46.2393 21.1258L55.2227 18.0347Z" fill="black"/>
<path d="M56.4399 21.5677C56.5181 21.5445 56.6023 21.5523 56.6748 21.5896C56.7474 21.627 56.8027 21.6909 56.8293 21.768C56.8559 21.8451 56.8516 21.9295 56.8175 22.0036C56.7833 22.0777 56.7218 22.1356 56.6458 22.1654L47.6625 25.2566C47.6227 25.2721 47.5803 25.2795 47.5376 25.2783C47.495 25.277 47.453 25.2671 47.4143 25.2492C47.3755 25.2313 47.3408 25.2058 47.3122 25.1741C47.2835 25.1425 47.2616 25.1053 47.2477 25.065C47.2338 25.0246 47.2282 24.9819 47.2313 24.9393C47.2343 24.8968 47.2459 24.8553 47.2654 24.8173C47.285 24.7794 47.3119 24.7458 47.3448 24.7186C47.3776 24.6913 47.4156 24.671 47.4565 24.6589L56.4399 21.5677Z" fill="black"/>
<path d="M56.894 22.8859C56.9733 22.8586 57.0601 22.8639 57.1355 22.9007C57.2109 22.9374 57.2685 23.0026 57.2958 23.0819C57.3232 23.1611 57.3179 23.248 57.2811 23.3233C57.2444 23.3987 57.1792 23.4563 57.1 23.4836L48.1166 26.5747C48.0373 26.602 47.9505 26.5966 47.8751 26.5599C47.7998 26.5231 47.7421 26.4579 47.7148 26.3787C47.6875 26.2994 47.6928 26.2126 47.7295 26.1372C47.7662 26.0619 47.8314 26.0043 47.9107 25.977L56.894 22.8859Z" fill="black"/>
<path d="M44.0595 7.2879C44.9501 6.98162 45.9118 6.94629 46.8228 7.18636C47.7338 7.42644 48.5532 7.93115 49.1775 8.63666C49.8017 9.34217 50.2028 10.2168 50.3298 11.1499C50.4569 12.0831 50.3044 13.0328 49.8914 13.879C49.4785 14.7252 48.8238 15.4299 48.0101 15.904C47.1963 16.378 46.2601 16.6001 45.3198 16.5423C44.3796 16.4844 43.4775 16.1491 42.7276 15.5787C41.9778 15.0084 41.4138 14.2287 41.1072 13.3381C40.698 12.1441 40.779 10.8367 41.3324 9.70264C41.8858 8.56856 42.8664 7.70022 44.0595 7.2879ZM49.5167 10.4452C49.2505 9.67284 48.7612 8.99662 48.1107 8.50207C47.4601 8.00752 46.6776 7.71684 45.862 7.66679C45.0464 7.61675 44.2344 7.80958 43.5287 8.22092C42.8229 8.63225 42.2551 9.2436 41.8971 9.97766C41.539 10.7117 41.4069 11.5355 41.5172 12.3449C41.6276 13.1543 41.9755 13.9129 42.5171 14.5247C43.0587 15.1366 43.7695 15.5743 44.5597 15.7824C45.35 15.9906 46.1841 15.9598 46.9566 15.694C47.9919 15.3368 48.843 14.5834 49.3231 13.5994C49.8031 12.6153 49.8724 11.481 49.5167 10.4452Z" fill="black"/>
<path d="M45.7066 24.9948L46.5296 27.383C46.5568 27.4621 46.5514 27.5488 46.5147 27.624C46.478 27.6992 46.4131 27.7568 46.334 27.7841L43.9448 28.606C43.8656 28.6331 43.7789 28.6277 43.7036 28.591C43.6284 28.5543 43.5708 28.4893 43.5434 28.4103L42.7203 26.0221C42.6932 25.9429 42.6985 25.8563 42.7352 25.7811C42.7719 25.7059 42.8369 25.6483 42.916 25.6209L45.3046 24.7992C45.3839 24.7723 45.4705 24.7777 45.5458 24.8143C45.6211 24.851 45.6789 24.9158 45.7066 24.9948ZM45.8305 27.2938L45.2126 25.501L43.4215 26.1171L44.0386 27.9079L45.8305 27.2938Z" fill="black"/>
<path d="M44.0358 20.1452L44.8589 22.5334C44.8862 22.6126 44.8809 22.6994 44.8443 22.7747C44.8076 22.85 44.7426 22.9077 44.6634 22.935L42.2742 23.757C42.1949 23.7841 42.1081 23.7786 42.0328 23.7418C41.9575 23.705 41.8999 23.6399 41.8726 23.5607L41.0495 21.1725C41.0224 21.0933 41.0278 21.0067 41.0644 20.9315C41.1011 20.8563 41.1661 20.7987 41.2452 20.7713L43.6339 19.9496C43.7131 19.9227 43.7998 19.9281 43.875 19.9647C43.9503 20.0014 44.0081 20.0662 44.0358 20.1452ZM44.1597 22.4442L43.5418 20.6514L41.7507 21.2675L42.3679 23.0582L44.1597 22.4442Z" fill="black"/>
<path d="M33.6293 6.82387L33.841 7.43814L33.2263 7.22498C33.1812 7.20928 33.1402 7.18352 33.1064 7.14966C33.0727 7.11579 33.0471 7.0747 33.0316 7.0295L33.0264 7.01447C33.0226 7.00251 33.0196 6.9903 33.0174 6.97792C33.0163 6.97512 33.0153 6.97225 33.0145 6.96933C33.013 6.95165 33.0127 6.9339 33.0136 6.91618C33.0142 6.91172 33.0144 6.90721 33.0143 6.90271C33.0154 6.88936 33.0172 6.87609 33.0199 6.86297C33.0199 6.86297 33.0188 6.85974 33.0207 6.85488C33.0226 6.85001 33.0228 6.84875 33.0231 6.84444C33.0234 6.84013 33.0257 6.83813 33.0252 6.83652C33.0246 6.83491 33.0287 6.8275 33.0292 6.82373C33.037 6.80028 33.0479 6.77796 33.0616 6.75733C33.0637 6.753 33.0663 6.75028 33.0681 6.74308C33.0721 6.73766 33.0766 6.73252 33.0814 6.72769C33.0885 6.7183 33.0963 6.70941 33.1046 6.70107C33.1087 6.69726 33.113 6.69219 33.1173 6.68891C33.1222 6.68378 33.1277 6.67926 33.1337 6.67547C33.1374 6.67169 33.142 6.66887 33.147 6.66726C33.1506 6.66419 33.1546 6.66161 33.1588 6.6596C33.1624 6.65733 33.1664 6.65594 33.1706 6.65554C33.1876 6.64512 33.2055 6.63634 33.2241 6.62934L33.2397 6.62398C33.2516 6.62014 33.2638 6.61714 33.2762 6.61501C33.279 6.61386 33.2819 6.61287 33.2848 6.61206C33.3023 6.6107 33.3199 6.61047 33.3374 6.61137L33.3509 6.61214C33.3645 6.6131 33.3779 6.61489 33.3912 6.6175C33.3912 6.6175 33.3944 6.61639 33.3993 6.61832L33.4092 6.62091L33.4177 6.62281C33.4209 6.6217 33.4262 6.6265 33.4305 6.62682L33.4343 6.62911C33.4792 6.64499 33.5201 6.67072 33.5539 6.70441C33.5876 6.73811 33.6134 6.77893 33.6293 6.82387Z" fill="black"/>
<path d="M33.4325 6.62798C33.4286 6.62694 33.4231 6.6234 33.4199 6.62451C33.4253 6.62266 33.4286 6.62694 33.4325 6.62798Z" fill="black"/>
<path d="M33.403 6.61897C33.403 6.61897 33.3981 6.61704 33.3949 6.61815C33.3917 6.61926 33.3997 6.61649 33.403 6.61897Z" fill="black"/>
<path d="M33.2901 6.61204C33.2873 6.61319 33.2845 6.61418 33.2815 6.615C33.2841 6.61336 33.2871 6.61235 33.2901 6.61204Z" fill="black"/>
<path d="M33.1636 6.65816C33.1588 6.65982 33.1539 6.66148 33.1497 6.66655C33.1547 6.66449 33.1594 6.66166 33.1636 6.65816Z" fill="black"/>
<path d="M33.1502 6.66805C33.147 6.66916 33.1417 6.67101 33.1395 6.67534C33.1424 6.67205 33.1461 6.66955 33.1502 6.66805Z" fill="black"/>
<path d="M33.121 6.68965C33.1162 6.69311 33.112 6.69719 33.1084 6.7018C33.1126 6.69853 33.1162 6.69131 33.121 6.68965Z" fill="black"/>
<path d="M33.072 6.74429C33.069 6.74794 33.0665 6.75202 33.0647 6.75639C33.0668 6.75206 33.0699 6.74862 33.072 6.74429Z" fill="black"/>
<path d="M33.0308 6.82328C33.0297 6.82724 33.0262 6.83266 33.0273 6.83589C33.0284 6.83911 33.0297 6.82724 33.0308 6.82328Z" fill="black"/>
<path d="M33.0223 6.85436C33.0223 6.85436 33.0202 6.85869 33.0214 6.86245C33.0227 6.86621 33.019 6.85547 33.0223 6.85436Z" fill="black"/>
<path d="M33.0154 6.96711C33.0166 6.96991 33.0175 6.97278 33.0184 6.9757C33.0167 6.97311 33.0157 6.97017 33.0154 6.96711Z" fill="black"/>
<g filter="url(#filter0_d_88_2367)">
<path d="M46.8481 10.2545L46.3547 10.4227C46.2548 10.2651 46.1286 10.1257 45.9816 10.0106L46.6842 9.77105C46.733 9.75461 46.7781 9.72871 46.8169 9.69483C46.8557 9.66096 46.8874 9.61978 46.9103 9.57364C46.9332 9.52749 46.9467 9.4773 46.9502 9.42591C46.9536 9.37452 46.9469 9.32295 46.9305 9.27415C46.914 9.22534 46.8881 9.18025 46.8542 9.14145C46.8203 9.10265 46.7791 9.07091 46.7329 9.04803C46.6867 9.02514 46.6365 9.01157 46.5851 9.00809C46.5337 9.00461 46.4821 9.01128 46.4333 9.02773L43.5517 10.0103C43.4532 10.0439 43.372 10.1152 43.3262 10.2087C43.2803 10.3021 43.2734 10.4099 43.3071 10.5084C43.3407 10.607 43.4122 10.6881 43.5056 10.734C43.5991 10.7799 43.707 10.7868 43.8055 10.7532L44.6308 10.4718C44.7925 10.4129 44.9679 10.4019 45.1357 10.4404C45.3036 10.4789 45.4567 10.5651 45.5767 10.6886L43.9705 11.2363C43.9217 11.2529 43.8767 11.279 43.838 11.313C43.7993 11.3471 43.7677 11.3884 43.745 11.4346C43.7223 11.4809 43.7089 11.5312 43.7056 11.5826C43.7023 11.6341 43.7092 11.6856 43.7259 11.7344C43.7425 11.7832 43.7687 11.8282 43.8027 11.8669C43.8368 11.9056 43.8782 11.9373 43.9244 11.96C43.9707 11.9827 44.021 11.9961 44.0725 11.9994C44.1239 12.0027 44.1755 11.9958 44.2243 11.9792L45.8305 11.4315C45.8134 11.5318 45.784 11.6296 45.7429 11.7226C45.6342 11.9374 45.4459 12.1011 45.2182 12.179L44.3929 12.4604C44.2936 12.4962 44.2124 12.5699 44.1672 12.6653C44.1221 12.7607 44.1165 12.8702 44.1518 12.9698C44.1879 13.07 44.2621 13.152 44.3583 13.198L47.0844 14.445C47.1309 14.4696 47.1819 14.4845 47.2344 14.4889C47.2868 14.4934 47.3396 14.4872 47.3896 14.4708C47.4396 14.4544 47.4858 14.428 47.5254 14.3934C47.565 14.3587 47.5972 14.3164 47.62 14.2691C47.6429 14.2217 47.656 14.1702 47.6585 14.1176C47.661 14.0651 47.6529 14.0126 47.6347 13.9632C47.6165 13.9138 47.5885 13.8686 47.5524 13.8303C47.5163 13.792 47.4728 13.7613 47.4246 13.7402L47.4094 13.7327L45.5749 12.8947C45.9558 12.7378 46.2655 12.4462 46.4451 12.0756C46.5849 11.794 46.6416 11.4784 46.6085 11.1657L47.0992 10.9983C47.1978 10.9647 47.2789 10.8934 47.3248 10.7999C47.3707 10.7065 47.3775 10.5987 47.3439 10.5002C47.3102 10.4017 47.2388 10.3205 47.1453 10.2746C47.0518 10.2287 46.944 10.2218 46.8454 10.2554L46.8481 10.2545Z" fill="black"/>
</g>
</g>
<g filter="url(#filter1_d_88_2367)">
<path d="M160.741 53.438H115.714C108.813 53.438 103.219 59.0289 103.219 65.9256V183.273C103.219 190.17 108.813 195.76 115.714 195.76H160.741C167.642 195.76 173.236 190.17 173.236 183.273V65.9256C173.236 59.0289 167.642 53.438 160.741 53.438Z" fill="#5C5C5C"/>
</g>
<path d="M159.627 54.5535H116.831C109.931 54.5535 104.336 60.1443 104.336 67.041V182.158C104.336 189.054 109.931 194.645 116.831 194.645H159.627C166.528 194.645 172.122 189.054 172.122 182.158V67.041C172.122 60.1443 166.528 54.5535 159.627 54.5535Z" fill="black"/>
<path d="M158.959 56.9226H117.638C111.678 56.9226 106.847 61.7511 106.847 67.7073V181.491C106.847 187.447 111.678 192.275 117.638 192.275H158.959C164.919 192.275 169.75 187.447 169.75 181.491V67.7073C169.75 61.7511 164.919 56.9226 158.959 56.9226Z" fill="#E6E6E6"/>
<g filter="url(#filter2_d_88_2367)">
<path d="M104.339 68.0769V67.1006H103.223V68.0769H104.339Z" fill="url(#paint0_linear_88_2367)"/>
</g>
<g filter="url(#filter3_d_88_2367)">
<path d="M159.986 53.438H159.01V54.554H159.986V53.438Z" fill="url(#paint1_linear_88_2367)"/>
</g>
<g filter="url(#filter4_d_88_2367)">
<path d="M173.237 68.0769V67.1006H172.121V68.0769H173.237Z" fill="url(#paint2_linear_88_2367)"/>
</g>
<g filter="url(#filter5_d_88_2367)">
<path d="M172.123 181.118V182.094H173.239V181.118H172.123Z" fill="url(#paint3_linear_88_2367)"/>
</g>
<g filter="url(#filter6_d_88_2367)">
<path d="M117.447 194.645H116.47V195.761H117.447V194.645Z" fill="url(#paint4_linear_88_2367)"/>
</g>
<g filter="url(#filter7_d_88_2367)">
<path d="M103.22 181.118V182.094H104.336V181.118H103.22Z" fill="url(#paint5_linear_88_2367)"/>
</g>
<g filter="url(#filter8_d_88_2367)">
<path d="M103.012 86.7537H103.011C102.896 86.7537 102.802 86.8472 102.802 86.9625V96.7204C102.802 96.8358 102.896 96.9293 103.011 96.9293H103.012C103.127 96.9293 103.221 96.8358 103.221 96.7204V86.9625C103.221 86.8472 103.127 86.7537 103.012 86.7537Z" fill="url(#paint6_linear_88_2367)"/>
</g>
<g filter="url(#filter9_d_88_2367)">
<path d="M103.012 100.274H103.011C102.896 100.274 102.802 100.368 102.802 100.483V110.241C102.802 110.357 102.896 110.45 103.011 110.45H103.012C103.127 110.45 103.221 110.357 103.221 110.241V100.483C103.221 100.368 103.127 100.274 103.012 100.274Z" fill="url(#paint7_linear_88_2367)"/>
</g>
<g filter="url(#filter10_d_88_2367)">
<path d="M173.443 89.5408H173.442C173.327 89.5408 173.233 89.6343 173.233 89.7497V102.714C173.233 102.829 173.327 102.923 173.442 102.923H173.443C173.558 102.923 173.652 102.829 173.652 102.714V89.7497C173.652 89.6343 173.558 89.5408 173.443 89.5408Z" fill="url(#paint8_linear_88_2367)"/>
</g>
<g style="mix-blend-mode:hard-light" opacity="0.291">
<path d="M168.965 58.0571C168.965 58.0571 171.298 56.0307 171.842 67.2707C172.386 78.5106 172.12 180.469 171.81 184.871C171.501 189.273 169.577 191.197 169.577 191.197C170.103 189.155 170.404 187.061 170.472 184.953C170.529 181.749 170.571 70.2807 170.52 64.6386C170.469 58.9965 168.965 58.0571 168.965 58.0571Z" fill="white"/>
</g>
<g style="mix-blend-mode:hard-light" opacity="0.291">
<path d="M169.83 58.0918C169.83 58.0918 168.604 54.6163 164.131 54.1849C159.658 53.7535 112.426 54.0248 110.456 54.2201C108.486 54.4153 106.501 56.4553 106.501 56.4553C106.501 56.4553 109.243 55.3298 110.676 55.2929C111.029 55.2838 118.84 55.2872 118.84 55.2872C118.84 55.2872 160.951 55.3615 162.856 55.3854C165.379 55.4149 169.83 58.0918 169.83 58.0918Z" fill="white"/>
</g>
<g style="mix-blend-mode:hard-light" opacity="0.291">
<path d="M105.803 191.577C105.803 191.577 106.492 194.788 111.521 195.131C116.55 195.474 163.226 195.29 165.196 195.096C167.165 194.901 169.044 192.144 169.044 192.144C169.044 192.144 166.897 193.773 164.975 194.027C164.623 194.037 156.812 194.033 156.812 194.033C156.812 194.033 114.701 193.959 112.796 193.935C110.273 193.904 105.803 191.577 105.803 191.577Z" fill="white"/>
</g>
<g style="mix-blend-mode:hard-light" opacity="0.291">
<path d="M106.816 55.9803C105.275 57.5696 103.665 59.4427 103.177 62.6617C102.689 65.8806 102.43 182.554 102.945 187.108C103.461 191.662 107.244 195.019 107.244 195.019C107.244 195.019 104.717 189.791 104.62 186.476C104.523 183.162 104.798 70.7485 104.883 64.9112C104.968 59.0738 108.357 54.3904 106.816 55.9803Z" fill="white"/>
</g>
<path d="M130.711 135.989L130.746 135.954C128.684 137.208 125.726 134.437 125.112 133.613L125.094 133.588C125.145 133.636 125.213 133.663 125.284 133.663C125.319 133.663 125.353 133.656 125.385 133.643C125.417 133.629 125.446 133.61 125.471 133.585L133.442 125.621L137.27 129.448L130.711 135.989Z" fill="url(#paint9_linear_88_2367)"/>
<path d="M130.745 135.955L130.71 135.99L128.735 137.965L128.367 138.333C127.944 138.759 127.441 139.096 126.886 139.326C126.332 139.555 125.738 139.673 125.137 139.671C124.464 139.674 123.799 139.525 123.192 139.235C122.584 138.946 122.05 138.524 121.628 137.999L121.599 137.963C118.974 134.685 117.376 130.706 117.006 126.524C116.636 122.342 117.51 118.144 119.519 114.458C121.822 112.414 125.039 115.383 125.395 115.663L125.412 115.676C125.372 115.652 125.325 115.639 125.278 115.639C125.231 115.638 125.184 115.651 125.143 115.674C125.104 115.694 125.071 115.723 125.047 115.759C124.793 116.134 124.552 116.529 124.328 116.929C122.956 119.398 122.267 122.188 122.331 125.012C122.395 127.836 123.21 130.591 124.693 132.996L124.706 133.008C124.706 133.008 124.724 133.045 124.73 133.055L124.742 133.073V133.084C124.805 133.185 124.87 133.29 124.936 133.389L125.042 133.546C125.047 133.553 125.052 133.56 125.059 133.566L125.079 133.587L125.097 133.612C125.725 134.438 128.689 137.209 130.745 135.955Z" fill="url(#paint10_linear_88_2367)"/>
<path d="M151.391 115.724C151.365 115.696 151.333 115.674 151.298 115.659C151.263 115.643 151.226 115.635 151.187 115.635C151.143 115.635 151.099 115.646 151.059 115.667C151.036 115.68 151.014 115.695 150.995 115.714L142.05 124.644L138.229 120.825L145.331 113.73L145.341 113.72C145.961 113.152 149.22 112.718 151.369 115.707L151.391 115.724Z" fill="url(#paint11_linear_88_2367)"/>
<path d="M151.364 133.601L151.336 133.627L151.314 133.655C150.854 134.356 150.23 134.934 149.495 135.339C148.76 135.743 147.938 135.962 147.099 135.976C146.422 136.021 145.751 135.829 145.2 135.435L125.512 115.757L125.487 115.744L125.452 115.699H125.445L125.432 115.687L125.414 115.674C125.058 115.394 121.842 112.426 119.539 114.469C119.776 114.027 120.033 113.599 120.306 113.177C120.709 112.547 121.145 111.939 121.612 111.356L121.646 111.314C122.065 110.79 122.597 110.367 123.201 110.076C123.806 109.785 124.468 109.634 125.139 109.633C125.739 109.631 126.333 109.748 126.887 109.978C127.441 110.208 127.944 110.545 128.367 110.97L150.996 133.586C151.021 133.611 151.051 133.631 151.084 133.645C151.117 133.659 151.152 133.666 151.187 133.665C151.252 133.664 151.314 133.641 151.364 133.601Z" fill="url(#paint12_linear_88_2367)"/>
<path d="M159.541 124.644C159.546 128.717 158.378 132.705 156.176 136.132C155.774 136.762 155.338 137.37 154.87 137.953L154.84 137.99C154.419 138.515 153.884 138.939 153.276 139.23C152.668 139.52 152.002 139.67 151.328 139.668C150.729 139.669 150.135 139.552 149.581 139.322C149.027 139.093 148.525 138.756 148.102 138.331L145.201 135.434C145.752 135.828 146.424 136.02 147.1 135.975C147.939 135.962 148.762 135.744 149.496 135.34C150.231 134.936 150.856 134.358 151.315 133.657L151.337 133.629L151.365 133.603C151.382 133.585 151.397 133.566 151.411 133.546C151.484 133.435 151.558 133.327 151.627 133.215C151.684 133.133 151.708 133.088 151.709 133.087C151.856 132.844 152.004 132.604 152.131 132.376C153.557 129.811 154.246 126.902 154.119 123.97C153.993 121.039 153.057 118.199 151.415 115.766L151.39 115.729L151.377 115.713C149.229 112.722 145.97 113.159 145.349 113.726L148.1 110.977C148.522 110.551 149.025 110.212 149.579 109.981C150.133 109.75 150.728 109.632 151.328 109.632C152 109.629 152.665 109.778 153.272 110.066C153.879 110.355 154.413 110.777 154.835 111.3L154.865 111.338C157.886 115.116 159.535 119.807 159.541 124.644Z" fill="url(#paint13_linear_88_2367)"/>
<g opacity="0.88">
<path d="M237.284 150.933H208.649V168.952H237.284V150.933Z" fill="#FFEDB1"/>
<path d="M208.649 154.642C209.279 154.905 209.954 155.04 210.637 155.039C211.432 155.037 212.216 154.853 212.928 154.5C213.641 154.148 214.263 153.636 214.747 153.006C215.229 153.638 215.851 154.15 216.563 154.503C217.276 154.856 218.061 155.039 218.856 155.039C219.652 155.039 220.436 154.856 221.149 154.503C221.862 154.15 222.484 153.638 222.966 153.006C223.448 153.638 224.07 154.15 224.783 154.503C225.495 154.856 226.28 155.039 227.075 155.039C227.871 155.039 228.655 154.856 229.368 154.503C230.081 154.15 230.703 153.638 231.185 153.006C231.669 153.636 232.291 154.148 233.003 154.5C233.716 154.852 234.5 155.037 235.295 155.039C235.977 155.04 236.653 154.905 237.283 154.642V150.933H208.649V154.642Z" fill="#FFE17D"/>
<path d="M239.405 149.873C239.406 150.808 239.088 151.715 238.504 152.444C237.92 153.174 237.104 153.683 236.192 153.887C235.279 154.091 234.325 153.978 233.485 153.566C232.646 153.155 231.972 152.47 231.574 151.624C231.541 151.548 231.486 151.484 231.416 151.439C231.347 151.393 231.266 151.369 231.183 151.369C231.1 151.369 231.019 151.393 230.95 151.439C230.88 151.484 230.826 151.548 230.792 151.624C230.46 152.329 229.934 152.926 229.275 153.344C228.616 153.761 227.852 153.983 227.072 153.983C226.292 153.983 225.528 153.761 224.869 153.344C224.21 152.926 223.684 152.329 223.352 151.624C223.319 151.548 223.264 151.484 223.194 151.439C223.125 151.393 223.044 151.369 222.961 151.369C222.878 151.369 222.797 151.393 222.728 151.439C222.658 151.484 222.604 151.548 222.57 151.624C222.238 152.329 221.712 152.926 221.053 153.344C220.394 153.761 219.63 153.983 218.85 153.983C218.07 153.983 217.306 153.761 216.647 153.344C215.988 152.926 215.462 152.329 215.13 151.624C215.096 151.548 215.042 151.484 214.972 151.439C214.903 151.393 214.822 151.369 214.739 151.369C214.656 151.369 214.575 151.393 214.506 151.439C214.436 151.484 214.381 151.548 214.348 151.624C213.947 152.464 213.273 153.142 212.436 153.549C211.599 153.956 210.648 154.067 209.74 153.864C208.831 153.661 208.019 153.155 207.435 152.43C206.852 151.705 206.532 150.804 206.528 149.873L210.465 142.987C210.558 142.825 210.692 142.69 210.853 142.597C211.015 142.503 211.199 142.453 211.385 142.453H234.547C234.734 142.453 234.918 142.503 235.08 142.597C235.241 142.69 235.375 142.825 235.468 142.987L239.405 149.873Z" fill="#DC4655"/>
<path d="M234.547 142.453H211.385C211.199 142.453 211.015 142.503 210.853 142.597C210.692 142.69 210.558 142.825 210.465 142.987L206.528 149.873H239.405L235.468 142.987C235.375 142.825 235.241 142.69 235.08 142.597C234.918 142.503 234.734 142.453 234.547 142.453Z" fill="#E6646E"/>
<path d="M228.269 156.763V168.953H234.63V156.763C234.63 156.622 234.574 156.488 234.475 156.388C234.375 156.289 234.24 156.233 234.1 156.233H228.797C228.657 156.234 228.523 156.29 228.424 156.389C228.325 156.489 228.269 156.623 228.269 156.763Z" fill="white"/>
<path d="M238.345 169.482H207.589C207.518 169.485 207.447 169.473 207.38 169.447C207.314 169.421 207.254 169.383 207.202 169.333C207.151 169.284 207.111 169.225 207.083 169.159C207.055 169.094 207.041 169.023 207.041 168.952C207.041 168.881 207.055 168.811 207.083 168.745C207.111 168.68 207.151 168.62 207.202 168.571C207.254 168.521 207.314 168.483 207.38 168.457C207.447 168.432 207.518 168.42 207.589 168.422H238.345C238.416 168.42 238.487 168.432 238.553 168.457C238.619 168.483 238.68 168.521 238.731 168.571C238.782 168.62 238.823 168.68 238.85 168.745C238.878 168.811 238.892 168.881 238.892 168.952C238.892 169.023 238.878 169.094 238.85 169.159C238.823 169.225 238.782 169.284 238.731 169.333C238.68 169.383 238.619 169.421 238.553 169.447C238.487 169.473 238.416 169.485 238.345 169.482Z" fill="#DBD9DC"/>
<path d="M225.088 166.302H211.831C211.69 166.302 211.555 166.247 211.456 166.147C211.356 166.048 211.3 165.913 211.3 165.772V156.763C211.3 156.622 211.356 156.488 211.456 156.388C211.555 156.289 211.69 156.233 211.831 156.233H225.088C225.229 156.233 225.364 156.289 225.463 156.388C225.563 156.488 225.619 156.622 225.619 156.763V165.773C225.619 165.913 225.563 166.048 225.463 166.147C225.364 166.247 225.229 166.302 225.088 166.302Z" fill="white"/>
<path d="M218.194 165.242H224.292C224.327 165.242 224.361 165.235 224.393 165.222C224.426 165.208 224.455 165.189 224.48 165.164C224.504 165.14 224.524 165.11 224.537 165.078C224.55 165.046 224.557 165.012 224.557 164.977V158.882L218.194 165.242Z" fill="#FFF6D8"/>
<path d="M215.013 165.242L222.967 157.292H221.216L213.262 165.242H215.013Z" fill="#FFF6D8"/>
<path d="M219.346 157.292H212.626C212.556 157.292 212.489 157.32 212.439 157.37C212.389 157.42 212.361 157.487 212.361 157.558V164.273L219.346 157.292Z" fill="#FFF6D8"/>
<path d="M233.572 158.224V157.558C233.572 157.487 233.544 157.42 233.495 157.37C233.445 157.32 233.377 157.292 233.307 157.292H229.595C229.525 157.292 229.457 157.32 229.407 157.37C229.358 157.42 229.33 157.487 229.33 157.558V162.463L233.572 158.224Z" fill="#FFF6D8"/>
<path d="M229.332 164.712V165.507C229.332 165.577 229.36 165.645 229.41 165.694C229.459 165.744 229.527 165.772 229.597 165.772H233.308C233.378 165.772 233.445 165.744 233.495 165.694C233.545 165.645 233.573 165.577 233.573 165.507V160.472L229.332 164.712Z" fill="#FFF6D8"/>
</g>
<g opacity="0.94">
<path d="M59.8203 150.189H37.2576C36.9974 150.189 36.748 150.293 36.564 150.477C36.3801 150.66 36.2767 150.91 36.2767 151.17V167.837H60.8012V151.17C60.8012 150.91 60.6978 150.66 60.5139 150.477C60.3299 150.293 60.0805 150.189 59.8203 150.189Z" fill="#DFDFDF"/>
<path d="M50.1073 167.837H60.8011V158.515C58.6008 162.906 54.7592 166.255 50.1073 167.837Z" fill="#BEBEBE"/>
<path d="M42.6531 154.602H40.6914V158.033H56.3871V154.602H42.6531Z" fill="#31C292"/>
<path d="M44.1252 140.385C43.735 140.385 43.3607 140.54 43.0847 140.816C42.8087 141.092 42.6537 141.466 42.6537 141.856V156.072H54.4255V141.856C54.4255 141.466 54.5805 141.092 54.8565 140.816C55.1325 140.54 55.5067 140.385 55.897 140.385H44.1252Z" fill="#338DBF"/>
<path d="M57.3685 146.758V141.856C57.3685 141.466 57.2135 141.092 56.9375 140.816C56.6615 140.54 56.2872 140.385 55.897 140.385C55.5067 140.385 55.1324 140.54 54.8564 140.816C54.5805 141.092 54.4254 141.466 54.4254 141.856V148.229H58.8401C58.4498 148.229 58.0755 148.074 57.7995 147.798C57.5235 147.522 57.3685 147.148 57.3685 146.758Z" fill="#0071AF"/>
<path d="M61.5372 141.856C61.8624 141.856 62.1743 141.985 62.4043 142.215C62.6342 142.445 62.7634 142.757 62.7634 143.082V145.778H60.311V143.082C60.311 142.757 60.4402 142.445 60.6702 142.215C60.9001 141.985 61.212 141.856 61.5372 141.856Z" fill="#00A16C"/>
<path d="M61.7826 168.817H35.2959C35.1671 168.817 35.0395 168.792 34.9204 168.743C34.8014 168.693 34.6932 168.621 34.6021 168.53C34.5111 168.439 34.4388 168.331 34.3896 168.212C34.3403 168.093 34.315 167.965 34.3151 167.837V165.876H45.1901C45.4502 165.876 45.6996 165.979 45.8835 166.163L46.2896 166.569C46.4735 166.753 46.723 166.856 46.9831 166.856H50.0943C50.3544 166.856 50.6038 166.753 50.7877 166.569L51.1938 166.163C51.285 166.072 51.3933 166 51.5125 165.95C51.6317 165.901 51.7594 165.876 51.8884 165.876H62.7634V167.837C62.7635 167.965 62.7382 168.093 62.6889 168.212C62.6397 168.331 62.5674 168.439 62.4763 168.53C62.3853 168.621 62.2771 168.693 62.1581 168.743C62.039 168.792 61.9114 168.817 61.7826 168.817Z" fill="#BEBEBE"/>
<path d="M57.3679 141.856V146.758C57.3679 147.148 57.523 147.522 57.7989 147.798C58.0749 148.074 58.4492 148.229 58.8395 148.229C59.2297 148.229 59.604 148.074 59.88 147.798C60.156 147.522 60.311 147.148 60.311 146.758V143.082C60.311 142.757 60.4402 142.445 60.6702 142.215C60.9001 141.985 61.212 141.856 61.5372 141.856H57.3679Z" fill="#5CA4CC"/>
<path d="M61.5372 141.856C61.212 141.856 60.9001 141.985 60.6702 142.215C60.4402 142.445 60.311 142.757 60.311 143.082V145.778H62.7634V143.082C62.7634 142.757 62.6342 142.445 62.4043 142.215C62.1743 141.985 61.8624 141.856 61.5372 141.856Z" fill="#0071AF"/>
<path d="M48.8863 164.549C48.7943 164.458 48.6696 164.406 48.5395 164.406C48.4095 164.406 48.2848 164.458 48.1928 164.549L47.4988 163.856C47.7747 163.58 48.149 163.425 48.5393 163.425C48.9295 163.425 49.3038 163.58 49.5797 163.856L48.8863 164.549Z" fill="#00B378"/>
<path d="M50.2732 163.163C50.0455 162.935 49.7751 162.755 49.4776 162.631C49.18 162.508 48.8611 162.445 48.539 162.445C48.2169 162.445 47.898 162.508 47.6004 162.631C47.3029 162.755 47.0325 162.935 46.8048 163.163L46.1113 162.47C46.7553 161.826 47.6286 161.465 48.5393 161.465C49.4499 161.465 50.3233 161.826 50.9673 162.47L50.2732 163.163Z" fill="#00B378"/>
<path d="M51.6607 161.774C51.2508 161.364 50.7642 161.039 50.2286 160.817C49.693 160.596 49.119 160.482 48.5393 160.482C47.9595 160.482 47.3855 160.596 46.8499 160.817C46.3143 161.039 45.8277 161.364 45.4178 161.774L44.7244 161.083C45.7362 160.072 47.1086 159.504 48.5395 159.504C49.9705 159.504 51.3429 160.072 52.3547 161.083L51.6607 161.774Z" fill="#00B378"/>
<path d="M44.1246 144.798V151.661H52.9533V144.798H44.1246ZM51.9725 146.758H50.501V145.778H51.9725V146.758ZM50.501 147.739H51.9725V148.719H50.501V147.739ZM49.5201 148.719H45.1055V147.739H49.5201V148.719ZM49.5201 145.778V146.758H45.1055V145.778H49.5201ZM45.1055 149.7H49.5201V150.68H45.1055V149.7ZM50.501 150.68V149.7H51.9725V150.68H50.501Z" fill="#7DB6D6"/>
<path d="M49.0294 153.131H44.1246V154.112H49.0294V153.131Z" fill="#7DB6D6"/>
<path d="M51.4818 142.346H45.5962V143.327H51.4818V142.346Z" fill="#7DB6D6"/>
<path d="M44.1246 168.817H61.782C61.9108 168.817 62.0384 168.792 62.1574 168.743C62.2764 168.693 62.3845 168.621 62.4756 168.53C62.5667 168.439 62.6389 168.331 62.6882 168.212C62.7375 168.093 62.7629 167.966 62.7629 167.837V165.876H54.1807C51.1811 167.802 47.6898 168.823 44.1246 168.817Z" fill="#A2A2A2"/>
<path d="M42.6537 156.072H54.4255V144.307C54.4255 147.427 53.1852 150.42 50.9776 152.626C48.77 154.833 45.7758 156.072 42.6537 156.072Z" fill="#2C78A3"/>
<path d="M57.3679 143.817V146.758C57.3679 147.049 57.4542 147.333 57.6158 147.575C57.7775 147.817 58.0072 148.005 58.276 148.117C58.5448 148.228 58.8405 148.257 59.1259 148.2C59.4113 148.144 59.6735 148.004 59.8794 147.798C59.1274 147.439 58.4924 146.875 58.048 146.17C57.6035 145.466 57.3678 144.65 57.3679 143.817Z" fill="#4E8CAE"/>
<path d="M60.311 143.327V145.778H62.7634C62.113 145.778 61.4892 145.52 61.0293 145.06C60.5694 144.6 60.311 143.977 60.311 143.327Z" fill="#006095"/>
<path d="M54.4254 143.817V148.229H58.8401C57.6692 148.229 56.5463 147.764 55.7184 146.936C54.8905 146.109 54.4254 144.987 54.4254 143.817Z" fill="#006095"/>
<path d="M51.8424 151.66H52.9539V150.005C52.6308 150.587 52.259 151.141 51.8424 151.66Z" fill="#6B9BB6"/>
<path d="M52.9533 153.131H50.9916V154.112H52.9533V153.131Z" fill="#6B9BB6"/>
</g>
<g opacity="0.91">
<path d="M24.3857 96.1639C24.7006 96.0314 25.0385 95.9621 25.3802 95.9602C25.7219 95.9582 26.0607 96.0235 26.3772 96.1524C26.6936 96.2812 26.9816 96.4712 27.2247 96.7113C27.4678 96.9514 27.6612 97.237 27.7939 97.5517L29.6885 102.011L29.6833 102.013L30.2662 103.385L17.9843 108.596L16.2357 104.48L16.2383 104.479L15.5095 102.763C15.375 102.449 15.3037 102.112 15.2997 101.77C15.2957 101.429 15.359 101.09 15.486 100.773C15.6131 100.456 15.8014 100.167 16.0401 99.9225C16.2789 99.6782 16.5635 99.4834 16.8776 99.3491L24.3857 96.1639Z" fill="#F8B41E"/>
<path d="M35.2941 94.3701C35.1616 94.0551 34.9683 93.7693 34.7252 93.529C34.4821 93.2887 34.1941 93.0986 33.8776 92.9695C33.561 92.8405 33.2221 92.7751 32.8803 92.777C32.5385 92.7789 32.2004 92.8482 31.8854 92.9808L27.2798 94.9346C28.1241 95.3751 28.7886 96.0958 29.1592 96.9727L29.8878 98.6875L29.8826 98.6898L31.6314 102.806L36.7485 100.635C37.0203 100.519 37.2348 100.299 37.3448 100.025C37.4547 99.7507 37.4512 99.4439 37.3349 99.1721L35.2941 94.3701Z" fill="#0071AF"/>
<path d="M16.036 107.804L16.0387 107.803L14.1441 103.344L14.0282 103.037C13.7607 102.241 13.7447 101.382 13.9823 100.577L9.36828 102.534L9.17615 102.627C8.59891 102.932 8.15767 103.443 7.93997 104.059C7.72227 104.675 7.74402 105.349 8.0009 105.95L10.0411 110.752C10.156 111.024 10.3745 111.24 10.6484 111.352C10.9223 111.463 11.2292 111.461 11.5018 111.347L16.6189 109.176L16.036 107.804Z" fill="#EA675C"/>
<path d="M16.5482 88.1558C17.3615 87.8051 18.2608 87.7037 19.1321 87.8645C20.0033 88.0253 20.8073 88.441 21.442 89.059C22.0767 89.6769 22.5136 90.4693 22.6974 91.3356C22.8811 92.2019 22.8034 93.1031 22.4741 93.9251C22.1448 94.7471 21.5788 95.4528 20.8477 95.9527C20.1166 96.4526 19.2534 96.7242 18.3675 96.7332C17.4816 96.7421 16.613 96.488 15.8716 96.003C15.1303 95.5179 14.5497 94.8238 14.2033 94.0087C13.9728 93.4704 13.8505 92.892 13.8436 92.3065C13.8366 91.721 13.9451 91.14 14.1629 90.5965C14.3806 90.053 14.7033 89.5577 15.1126 89.1389C15.5218 88.7202 16.0097 88.3861 16.5482 88.1558Z" fill="#EAC6BB"/>
<path d="M26.0018 85.7637C26.6796 85.4715 27.429 85.3871 28.1551 85.5211C28.8811 85.6551 29.5511 86.0016 30.08 86.5166C30.6089 87.0315 30.973 87.6919 31.1261 88.4138C31.2792 89.1357 31.2144 89.8868 30.94 90.5718C30.6656 91.2567 30.1938 91.8448 29.5845 92.2614C28.9753 92.678 28.2559 92.9043 27.5177 92.9118C26.7795 92.9192 26.0556 92.7074 25.4378 92.3032C24.82 91.899 24.3361 91.3206 24.0475 90.6413C23.8554 90.1927 23.7535 89.7107 23.7477 89.2228C23.742 88.7348 23.8324 88.2506 24.0139 87.7977C24.1953 87.3447 24.4643 86.932 24.8054 86.583C25.1464 86.234 25.553 85.9556 26.0018 85.7637Z" fill="#EAC6BB"/>
<path d="M8.26054 93.2913C8.93839 92.9991 9.68783 92.9146 10.4139 93.0487C11.1399 93.1827 11.8098 93.5292 12.3388 94.0442C12.8677 94.5591 13.2318 95.2194 13.3849 95.9414C13.538 96.6633 13.4732 97.4144 13.1988 98.0994C12.9243 98.7843 12.4526 99.3724 11.8433 99.789C11.2341 100.206 10.5147 100.432 9.7765 100.439C9.03826 100.447 8.31437 100.235 7.69658 99.8308C7.07879 99.4266 6.59492 98.8482 6.3063 98.1689C6.11416 97.7203 6.0123 97.2383 6.00652 96.7503C6.00075 96.2624 6.09118 95.7782 6.27264 95.3253C6.45411 94.8723 6.72306 94.4596 7.06415 94.1106C7.40523 93.7616 7.81177 93.4832 8.26054 93.2913Z" fill="#EAC6BB"/>
<path d="M11.4974 114.181C11.3811 113.909 11.3775 113.602 11.4875 113.328C11.5975 113.053 11.812 112.834 12.0838 112.717L37.3297 102.007C37.6023 101.892 37.9093 101.89 38.1832 102.002C38.4571 102.114 38.6756 102.329 38.7905 102.602L39.082 103.288C39.664 104.647 39.6823 106.181 39.133 107.553C38.5837 108.925 37.5116 110.022 36.1526 110.604L19.0926 117.842C18.4177 118.126 17.6935 118.274 16.9612 118.278C16.229 118.282 15.503 118.142 14.8247 117.866C14.1465 117.59 13.5293 117.183 13.0084 116.668C12.4875 116.154 12.0731 115.541 11.7888 114.867L11.4974 114.181Z" fill="#14BB40"/>
<path d="M19.3345 87.9153C18.3781 87.7058 17.3802 87.7986 16.479 88.1809C15.5778 88.5632 14.8179 89.2161 14.3045 90.0492C12.9902 91.9292 14.5231 94.7105 14.5231 94.7105C16.2568 94.3092 17.7854 93.2916 18.8241 91.8474C20.0438 90.2358 21.0066 90.94 21.6446 91.6382C22.2651 92.3185 22.7468 91.8759 22.7468 91.8759C22.6485 90.9473 22.2692 90.0707 21.6595 89.363C21.0498 88.6553 20.2387 88.1503 19.3345 87.9153Z" fill="#434A54"/>
<path d="M28.3312 85.5869C27.533 85.4121 26.7002 85.4896 25.9481 85.8086C25.1961 86.1277 24.5619 86.6725 24.1333 87.3678C23.0362 88.9366 24.3149 91.2562 24.3149 91.2562C25.762 90.922 27.0381 90.0736 27.9057 88.8689C28.9238 87.5238 29.7273 88.1116 30.2599 88.6941C30.7782 89.2616 31.1795 88.8927 31.1795 88.8927C31.0974 88.1176 30.7808 87.3859 30.2719 86.7952C29.7629 86.2045 29.0859 85.783 28.3312 85.5869Z" fill="#434A54"/>
<path d="M10.5828 93.1151C9.78723 92.9409 8.95718 93.0181 8.20755 93.3361C7.45792 93.6541 6.82577 94.1972 6.3986 94.8902C5.30402 96.4548 6.57902 98.7686 6.57902 98.7686C8.02161 98.4347 9.29348 97.5881 10.1578 96.3864C11.1719 95.0435 11.9727 95.6295 12.5048 96.2121C13.0212 96.778 13.4216 96.41 13.4216 96.41C13.3398 95.6375 13.0243 94.9082 12.5171 94.3195C12.0098 93.7307 11.3351 93.3106 10.5828 93.1151Z" fill="#434A54"/>
</g>
<path d="M110.483 26.0239V23.1685H111.089V26.0239H110.483ZM113.776 26.0239H113.181V24.7485C113.181 24.591 113.153 24.4731 113.097 24.395C113.041 24.3156 112.951 24.2759 112.829 24.2759C112.662 24.2759 112.542 24.3319 112.468 24.4438C112.393 24.5545 112.356 24.7388 112.356 24.9966V26.0239H111.761V23.8403H112.216L112.296 24.1196H112.329C112.395 24.0142 112.487 23.9347 112.602 23.8813C112.72 23.8267 112.852 23.7993 113.001 23.7993C113.255 23.7993 113.447 23.8683 113.579 24.0063C113.71 24.1431 113.776 24.341 113.776 24.6001V26.0239ZM115.913 25.3755C115.913 25.5994 115.835 25.77 115.679 25.8872C115.524 26.0044 115.291 26.063 114.981 26.063C114.822 26.063 114.687 26.0519 114.575 26.0298C114.463 26.009 114.358 25.9777 114.261 25.936V25.4438C114.371 25.4959 114.496 25.5396 114.634 25.5747C114.773 25.6099 114.895 25.6274 115.001 25.6274C115.217 25.6274 115.325 25.5649 115.325 25.4399C115.325 25.3931 115.311 25.3553 115.282 25.3267C115.253 25.2967 115.204 25.2635 115.134 25.2271C115.063 25.1893 114.97 25.1457 114.852 25.0962C114.684 25.0259 114.561 24.9608 114.481 24.9009C114.403 24.841 114.346 24.7726 114.309 24.6958C114.274 24.6177 114.257 24.522 114.257 24.4087C114.257 24.2147 114.332 24.0649 114.481 23.9595C114.632 23.8527 114.846 23.7993 115.122 23.7993C115.385 23.7993 115.641 23.8566 115.89 23.9712L115.71 24.4009C115.6 24.354 115.498 24.3156 115.403 24.2856C115.308 24.2557 115.211 24.2407 115.112 24.2407C114.936 24.2407 114.849 24.2882 114.849 24.3833C114.849 24.4367 114.877 24.4829 114.932 24.522C114.99 24.561 115.114 24.619 115.306 24.6958C115.476 24.7648 115.601 24.8293 115.681 24.8892C115.76 24.9491 115.819 25.0181 115.856 25.0962C115.894 25.1743 115.913 25.2674 115.913 25.3755ZM117.298 25.5884C117.402 25.5884 117.527 25.5656 117.673 25.52V25.9634C117.524 26.0298 117.342 26.063 117.126 26.063C116.888 26.063 116.714 26.0031 116.604 25.8833C116.496 25.7622 116.442 25.5812 116.442 25.3403V24.2876H116.157V24.0356L116.485 23.8364L116.657 23.3755H117.038V23.8403H117.649V24.2876H117.038V25.3403C117.038 25.425 117.061 25.4875 117.108 25.5278C117.156 25.5682 117.22 25.5884 117.298 25.5884ZM111.823 31.0239L111.708 30.7271H111.692C111.592 30.8534 111.488 30.9412 111.382 30.9907C111.276 31.0389 111.138 31.063 110.968 31.063C110.758 31.063 110.593 31.0031 110.472 30.8833C110.352 30.7635 110.292 30.5929 110.292 30.3716C110.292 30.1398 110.373 29.9692 110.534 29.8599C110.697 29.7492 110.942 29.688 111.268 29.6763L111.647 29.6646V29.5688C111.647 29.3475 111.534 29.2368 111.307 29.2368C111.133 29.2368 110.928 29.2896 110.692 29.395L110.495 28.9927C110.746 28.8612 111.025 28.7954 111.331 28.7954C111.624 28.7954 111.849 28.8592 112.005 28.9868C112.161 29.1144 112.239 29.3084 112.239 29.5688V31.0239H111.823ZM111.647 30.0122L111.417 30.02C111.244 30.0252 111.115 30.0565 111.03 30.1138C110.946 30.1711 110.903 30.2583 110.903 30.3755C110.903 30.5435 111 30.6274 111.192 30.6274C111.33 30.6274 111.44 30.5877 111.522 30.5083C111.606 30.4289 111.647 30.3234 111.647 30.1919V30.0122ZM114.87 31.0239H114.274V29.7485C114.274 29.591 114.246 29.4731 114.19 29.395C114.134 29.3156 114.045 29.2759 113.923 29.2759C113.756 29.2759 113.636 29.3319 113.561 29.4438C113.487 29.5545 113.45 29.7388 113.45 29.9966V31.0239H112.854V28.8403H113.309L113.39 29.1196H113.423C113.489 29.0142 113.58 28.9347 113.696 28.8813C113.813 28.8267 113.946 28.7993 114.095 28.7993C114.349 28.7993 114.541 28.8683 114.673 29.0063C114.804 29.1431 114.87 29.341 114.87 29.6001V31.0239ZM116.403 30.5884C116.507 30.5884 116.632 30.5656 116.778 30.52V30.9634C116.63 31.0298 116.447 31.063 116.231 31.063C115.993 31.063 115.819 31.0031 115.71 30.8833C115.602 30.7622 115.548 30.5812 115.548 30.3403V29.2876H115.263V29.0356L115.591 28.8364L115.763 28.3755H116.143V28.8403H116.755V29.2876H116.143V30.3403C116.143 30.425 116.167 30.4875 116.214 30.5278C116.262 30.5682 116.325 30.5884 116.403 30.5884Z" fill="#F05A62"/>
<g opacity="0.85">
<path d="M50.5117 54.5334H74.5761V67.1913H50.5117V54.5334Z" fill="#3BA673"/>
<path d="M70.7766 63.6024V64.8682H54.3113V63.6024H53.0448V58.5392H54.3113V57.2734H72.0431V63.6024H70.7766Z" fill="#44C086"/>
<path d="M62.5891 62.4454C63.277 62.4454 63.8346 61.8881 63.8346 61.2006C63.8346 60.5131 63.277 59.9558 62.5891 59.9558C61.9013 59.9558 61.3436 60.5131 61.3436 61.2006C61.3436 61.8881 61.9013 62.4454 62.5891 62.4454Z" fill="#3BA673"/>
<path d="M74.9748 56.2487C74.9748 56.6147 74.9026 56.9771 74.7625 57.3152C74.6224 57.6534 74.4169 57.9606 74.158 58.2194C73.8991 58.4782 73.5916 58.6835 73.2533 58.8236C72.915 58.9636 72.5524 59.0357 72.1862 59.0357H70.6294C70.5726 59.0358 70.5175 59.0548 70.4727 59.0896L66.5203 62.1604C66.0874 62.4965 65.5425 62.6551 64.9967 62.6039C64.4509 62.5527 63.9451 62.2955 63.5823 61.8848C63.2195 61.474 63.027 60.9405 63.0439 60.3929C63.0607 59.8452 63.2858 59.3246 63.6732 58.9369L67.5727 55.0397C67.6084 55.004 67.6327 54.9585 67.6426 54.909C67.6524 54.8594 67.6474 54.8081 67.628 54.7615C67.6087 54.7148 67.576 54.6749 67.534 54.6469C67.492 54.6188 67.4427 54.6038 67.3921 54.6038H55.9764L62.3181 51.1487C62.7277 50.9253 63.1868 50.8082 63.6534 50.8081H79.783C79.8166 50.8081 79.8498 50.8147 79.8808 50.8275C79.9118 50.8404 79.94 50.8592 79.9637 50.8829C79.9874 50.9066 80.0063 50.9348 80.0191 50.9658C80.032 50.9968 80.0386 51.03 80.0386 51.0635V55.6164C80.0386 55.6841 80.0116 55.7491 79.9637 55.797C79.9158 55.8449 79.8508 55.8718 79.783 55.8718H75.3502C75.25 55.8718 75.1539 55.9116 75.0831 55.9824C75.0123 56.0532 74.9725 56.1492 74.9725 56.2493L74.9748 56.2487Z" fill="#F5CBAA"/>
<path d="M77.5078 49.2126H81.1631V57.4431H77.5078V49.2126Z" fill="#155384"/>
<path d="M56.2111 73.292C56.2111 72.5529 56.5049 71.844 57.0279 71.3213C57.5508 70.7987 58.2601 70.505 58.9997 70.505H60.5564C60.6132 70.505 60.6684 70.486 60.7132 70.4511L64.6655 67.3792C65.0985 67.0431 65.6433 66.8845 66.1891 66.9357C66.7349 66.9869 67.2407 67.2441 67.6035 67.6548C67.9663 68.0656 68.1589 68.5991 68.142 69.1467C68.1251 69.6944 67.9 70.215 67.5126 70.6027L63.6131 74.5022C63.5774 74.5379 63.5531 74.5834 63.5433 74.6329C63.5334 74.6825 63.5385 74.7338 63.5578 74.7804C63.5771 74.8271 63.6099 74.8669 63.6518 74.895C63.6938 74.9231 63.7432 74.9381 63.7937 74.9381H75.2094L68.8649 78.3926C68.4553 78.616 67.9962 78.7331 67.5297 78.7332H51.4006C51.3328 78.7332 51.2678 78.7063 51.2199 78.6584C51.1719 78.6105 51.145 78.5455 51.145 78.4778V73.9249C51.145 73.8572 51.1719 73.7922 51.2199 73.7443C51.2678 73.6964 51.3328 73.6695 51.4006 73.6695H55.8334C55.883 73.6695 55.9321 73.6597 55.9779 73.6408C56.0238 73.6218 56.0654 73.594 56.1005 73.559C56.1355 73.5239 56.1634 73.4823 56.1823 73.4365C56.2013 73.3907 56.2111 73.3416 56.2111 73.292Z" fill="#F5CBAA"/>
<path d="M53.678 79.999H49.9085V71.7686H53.678V79.999Z" fill="#E74444"/>
</g>
<g opacity="0.85">
<path d="M221.663 62.6143C221.484 62.5494 221.286 62.5582 221.113 62.6386C220.941 62.7189 220.807 62.8644 220.741 63.0432L209.424 94.1087C209.288 94.4821 209.331 94.8401 209.517 94.9076C209.862 94.9826 210.219 94.9962 210.569 94.9478L212.335 94.7443C212.556 94.7321 212.777 94.7647 212.984 94.8402C213.192 94.9157 213.382 95.0325 213.543 95.1836L214.765 96.4738C214.926 96.6254 215.116 96.7425 215.324 96.818C215.532 96.8936 215.752 96.9259 215.973 96.9131L217.739 96.7096C217.96 96.6973 218.181 96.73 218.388 96.8055C218.596 96.881 218.786 96.9978 218.947 97.1489L220.169 98.4391C220.33 98.5907 220.52 98.7078 220.728 98.7834C220.936 98.8589 221.157 98.8912 221.377 98.8784L223.143 98.6749C223.364 98.6627 223.585 98.6953 223.793 98.7709C224.001 98.8465 224.191 98.9634 224.353 99.1146L225.575 100.405C225.736 100.556 225.926 100.674 226.134 100.749C226.342 100.825 226.563 100.857 226.784 100.844L228.55 100.641C228.77 100.629 228.991 100.661 229.198 100.737C229.406 100.812 229.596 100.929 229.757 101.08L230.979 102.37C231.216 102.632 231.497 102.85 231.81 103.015C231.996 103.083 232.26 102.833 232.395 102.462L243.711 71.3966C243.776 71.2171 243.766 71.0193 243.685 70.8466C243.604 70.6739 243.458 70.5404 243.279 70.4752L221.663 62.6143Z" fill="#FFCE54"/>
<path d="M230.99 87.4202L233.692 88.4028C233.869 88.4618 234.063 88.4492 234.231 88.3677C234.4 88.2862 234.53 88.1422 234.594 87.9663C234.658 87.7904 234.651 87.5965 234.575 87.4258C234.498 87.2551 234.358 87.1211 234.184 87.0522L231.482 86.0696C231.392 86.0342 231.297 86.0171 231.201 86.0193C231.105 86.0215 231.01 86.0429 230.922 86.0823C230.834 86.1217 230.756 86.1783 230.69 86.2487C230.625 86.3191 230.574 86.4019 230.541 86.4922C230.508 86.5826 230.494 86.6786 230.499 86.7745C230.503 86.8705 230.527 86.9645 230.569 87.0511C230.611 87.1376 230.67 87.2148 230.742 87.2782C230.814 87.3416 230.899 87.3899 230.99 87.4202Z" fill="#656D78"/>
<path d="M233.2 89.7538L230.498 88.7712C230.408 88.7359 230.313 88.7187 230.217 88.7209C230.121 88.7231 230.026 88.7446 229.938 88.784C229.851 88.8234 229.772 88.8799 229.706 88.9504C229.641 89.0208 229.59 89.1036 229.557 89.1939C229.524 89.2842 229.51 89.3802 229.515 89.4762C229.519 89.5722 229.544 89.6662 229.585 89.7527C229.627 89.8392 229.686 89.9165 229.758 89.9799C229.83 90.0433 229.915 90.0916 230.006 90.1219L232.708 91.1045C232.885 91.1635 233.079 91.1509 233.248 91.0694C233.416 90.9879 233.546 90.8439 233.61 90.668C233.674 90.4921 233.667 90.2982 233.591 90.1275C233.514 89.9568 233.374 89.8227 233.2 89.7538Z" fill="#656D78"/>
<path d="M226.076 84.1026L217.968 81.1538C217.879 81.1184 217.783 81.1013 217.687 81.1035C217.591 81.1057 217.496 81.1271 217.408 81.1665C217.321 81.2059 217.242 81.2625 217.176 81.3329C217.111 81.4033 217.06 81.4861 217.027 81.5764C216.994 81.6667 216.98 81.7627 216.985 81.8587C216.99 81.9547 217.014 82.0487 217.056 82.1352C217.097 82.2217 217.156 82.299 217.228 82.3624C217.301 82.4258 217.385 82.4741 217.476 82.5044L225.584 85.4532C225.761 85.5122 225.955 85.4996 226.124 85.4181C226.292 85.3366 226.422 85.1926 226.486 85.0167C226.55 84.8409 226.543 84.647 226.467 84.4763C226.39 84.3056 226.25 84.1715 226.076 84.1026Z" fill="#656D78"/>
<path d="M231.232 95.1555L228.531 94.1728C228.441 94.1375 228.346 94.1204 228.25 94.1226C228.153 94.1247 228.059 94.1462 227.971 94.1856C227.883 94.225 227.804 94.2816 227.739 94.352C227.674 94.4224 227.623 94.5052 227.59 94.5955C227.557 94.6858 227.543 94.7818 227.547 94.8778C227.552 94.9738 227.576 95.0678 227.618 95.1543C227.66 95.2409 227.719 95.3181 227.791 95.3815C227.863 95.4449 227.947 95.4932 228.039 95.5235L230.74 96.5061C230.918 96.5651 231.112 96.5526 231.28 96.471C231.449 96.3895 231.579 96.2455 231.643 96.0696C231.707 95.8938 231.7 95.6998 231.624 95.5291C231.547 95.3584 231.407 95.2244 231.232 95.1555Z" fill="#434A54"/>
<path d="M217.719 90.2398L215.017 89.2571C214.928 89.2217 214.832 89.2046 214.736 89.2068C214.64 89.209 214.545 89.2304 214.458 89.2698C214.37 89.3092 214.291 89.3658 214.225 89.4362C214.16 89.5066 214.109 89.5894 214.076 89.6798C214.044 89.7701 214.029 89.8661 214.034 89.9621C214.039 90.058 214.063 90.1521 214.105 90.2386C214.147 90.3251 214.205 90.4024 214.278 90.4658C214.35 90.5292 214.434 90.5775 214.525 90.6078L217.227 91.5905C217.316 91.6259 217.412 91.643 217.508 91.6408C217.604 91.6386 217.699 91.6172 217.787 91.5778C217.874 91.5384 217.953 91.4818 218.019 91.4114C218.084 91.341 218.135 91.2581 218.168 91.1678C218.201 91.0775 218.215 90.9815 218.21 90.8855C218.205 90.7895 218.181 90.6955 218.139 90.609C218.098 90.5225 218.039 90.4452 217.967 90.3818C217.894 90.3184 217.81 90.2701 217.719 90.2398Z" fill="#434A54"/>
<path d="M221.072 85.3422L216.984 83.8555C216.895 83.8201 216.799 83.803 216.703 83.8052C216.607 83.8074 216.512 83.8288 216.425 83.8682C216.337 83.9076 216.258 83.9642 216.193 84.0346C216.127 84.105 216.076 84.1878 216.043 84.2781C216.011 84.3685 215.996 84.4644 216.001 84.5604C216.006 84.6564 216.03 84.7504 216.072 84.837C216.114 84.9235 216.172 85.0007 216.245 85.0641C216.317 85.1275 216.401 85.1758 216.492 85.2061L220.58 86.6929C220.759 86.758 220.957 86.7493 221.13 86.6688C221.303 86.5882 221.436 86.4423 221.502 86.2632C221.567 86.0841 221.558 85.8864 221.478 85.7137C221.397 85.541 221.251 85.4074 221.072 85.3422Z" fill="#656D78"/>
<path d="M216.429 87.4773C216.38 87.6109 216.292 87.727 216.178 87.811C216.063 87.895 215.926 87.9431 215.784 87.9492C215.641 87.9553 215.501 87.9191 215.379 87.8452C215.258 87.7713 215.161 87.6631 215.101 87.5341C215.041 87.4052 215.021 87.2613 215.042 87.1208C215.064 86.9803 215.127 86.8493 215.224 86.7446C215.32 86.6399 215.445 86.566 215.583 86.5324C215.721 86.4988 215.867 86.5069 216 86.5557C216.179 86.6213 216.325 86.7551 216.405 86.9279C216.485 87.1006 216.494 87.2982 216.429 87.4773Z" fill="#F6BB42"/>
<path d="M219.132 88.4606C219.083 88.5941 218.996 88.7102 218.881 88.7942C218.767 88.8782 218.63 88.9263 218.488 88.9325C218.345 88.9387 218.205 88.9026 218.083 88.8289C217.962 88.7552 217.865 88.6471 217.805 88.5183C217.745 88.3894 217.724 88.2457 217.746 88.1052C217.767 87.9647 217.83 87.8338 217.926 87.7289C218.022 87.6241 218.147 87.55 218.285 87.5161C218.423 87.4822 218.569 87.49 218.702 87.5385C218.791 87.5708 218.873 87.6203 218.942 87.6841C219.012 87.7479 219.068 87.8248 219.108 87.9105C219.148 87.9961 219.171 88.0887 219.175 88.1831C219.179 88.2775 219.164 88.3718 219.132 88.4606Z" fill="#F6BB42"/>
<path d="M221.834 89.4436C221.786 89.5774 221.698 89.6937 221.583 89.7779C221.469 89.862 221.331 89.9103 221.189 89.9165C221.047 89.9227 220.906 89.8866 220.784 89.8127C220.663 89.7389 220.566 89.6306 220.506 89.5016C220.445 89.3726 220.425 89.2287 220.447 89.088C220.468 88.9474 220.531 88.8163 220.628 88.7114C220.724 88.6065 220.849 88.5325 220.988 88.4988C221.126 88.465 221.271 88.473 221.405 88.5218C221.584 88.5871 221.73 88.7209 221.81 88.8938C221.891 89.0666 221.9 89.2644 221.834 89.4436Z" fill="#F6BB42"/>
<path d="M224.536 90.4264C224.488 90.56 224.4 90.6762 224.285 90.7602C224.171 90.8442 224.033 90.8923 223.891 90.8984C223.749 90.9045 223.608 90.8683 223.487 90.7944C223.365 90.7205 223.269 90.6122 223.209 90.4833C223.149 90.3544 223.128 90.2105 223.15 90.07C223.172 89.9295 223.235 89.7986 223.331 89.6938C223.428 89.5891 223.553 89.5152 223.691 89.4816C223.829 89.448 223.974 89.4561 224.108 89.5049C224.287 89.5705 224.432 89.7043 224.513 89.877C224.593 90.0498 224.602 90.2474 224.536 90.4264Z" fill="#F6BB42"/>
<path d="M227.24 91.4102C227.192 91.5439 227.105 91.6602 226.99 91.7443C226.875 91.8285 226.738 91.8768 226.596 91.883C226.453 91.8893 226.313 91.8533 226.191 91.7795C226.069 91.7058 225.972 91.5976 225.912 91.4687C225.852 91.3398 225.831 91.1959 225.853 91.0553C225.874 90.9147 225.937 90.7836 226.033 90.6786C226.13 90.5736 226.255 90.4995 226.393 90.4656C226.531 90.4316 226.676 90.4394 226.81 90.4879C226.989 90.5532 227.136 90.687 227.216 90.8599C227.297 91.0328 227.306 91.2308 227.24 91.4102Z" fill="#F6BB42"/>
<path d="M229.942 92.3929C229.893 92.5266 229.806 92.643 229.691 92.7272C229.576 92.8113 229.439 92.8596 229.297 92.8657C229.154 92.8719 229.013 92.8357 228.892 92.7617C228.77 92.6878 228.673 92.5794 228.613 92.4503C228.553 92.3212 228.533 92.1772 228.555 92.0366C228.577 91.8959 228.64 91.7648 228.736 91.66C228.833 91.5552 228.958 91.4813 229.096 91.4477C229.235 91.4142 229.38 91.4224 229.514 91.4714C229.693 91.5369 229.838 91.6707 229.918 91.8435C229.999 92.0162 230.007 92.2138 229.942 92.3929Z" fill="#F6BB42"/>
<path d="M232.644 93.3757C232.595 93.5091 232.508 93.6251 232.393 93.7089C232.279 93.7928 232.142 93.8408 232 93.8468C231.858 93.8528 231.717 93.8166 231.596 93.7428C231.474 93.669 231.378 93.5608 231.318 93.432C231.258 93.3032 231.237 93.1596 231.259 93.0192C231.281 92.8788 231.344 92.748 231.44 92.6434C231.536 92.5387 231.661 92.4649 231.799 92.4312C231.937 92.3976 232.082 92.4056 232.216 92.4542C232.395 92.5198 232.54 92.6536 232.621 92.8264C232.701 92.9991 232.709 93.1967 232.644 93.3757Z" fill="#F6BB42"/>
</g>
<path d="M232.16 78.3656L232.132 78.3451C231.881 78.1608 231.647 77.9544 231.433 77.7284C230.811 77.1905 230.695 76.9241 230.679 76.812L230.678 76.7995L230.979 75.9639L229.273 75.322L227.554 74.7186L227.245 75.5559C227.244 75.5597 227.239 75.5617 227.236 75.5649C227.154 75.6408 226.894 75.7709 226.069 75.7827C225.76 75.8183 225.448 75.8262 225.137 75.8062L225.102 75.7988C224.876 75.7926 224.653 75.8576 224.466 75.9846C224.278 76.1117 224.136 76.2944 224.058 76.5069L223.617 77.718L232.065 80.7903L232.506 79.5792C232.583 79.3661 232.591 79.1342 232.529 78.9164C232.467 78.6985 232.338 78.5058 232.16 78.3656Z" fill="#5D9CEC"/>
<path d="M228.692 79.5642L227.016 78.9549L227.856 77.3822L229.031 77.8092L228.692 79.5642Z" fill="#8CC153"/>
<path d="M229.031 77.8104L227.859 77.384L228.195 75.4194L230.037 76.0895L229.031 77.8104Z" fill="#A0D468"/>
<path d="M227.649 76.8919L228.771 76.5144L227.512 74.8233L227.234 75.5639L227.649 76.8919Z" fill="#F5F7FA"/>
<path d="M229.508 77.5678L228.89 76.559L230.942 76.0705L230.679 76.8166L229.508 77.5678Z" fill="#F5F7FA"/>
<path d="M232.23 74.5822C231.668 76.1255 229.679 77.0104 228.775 76.6817C227.871 76.3529 226.919 74.3995 227.481 72.8552C227.578 72.5205 227.742 72.2091 227.963 71.9402C228.184 71.6713 228.458 71.4505 228.768 71.2915C229.078 71.1326 229.418 71.0387 229.765 71.0158C230.113 70.9929 230.462 71.0415 230.79 71.1584C231.116 71.2798 231.414 71.4666 231.665 71.7074C231.916 71.9482 232.116 72.2379 232.251 72.5587C232.386 72.8794 232.453 73.2244 232.45 73.5725C232.446 73.9205 232.372 74.2641 232.23 74.5822Z" fill="#EAC6BB"/>
<path d="M232.352 71.4387C232.014 70.9526 231.533 70.583 230.977 70.3806C230.42 70.1781 229.814 70.1527 229.242 70.3078C227.959 70.637 227.417 72.448 227.417 72.448C228.351 72.9848 229.447 73.166 230.505 72.9583C231.71 72.7512 231.847 73.4571 231.841 74.0268C231.836 74.5814 232.232 74.5846 232.232 74.5846C232.516 74.1127 232.675 73.5769 232.696 73.0269C232.717 72.4769 232.599 71.9307 232.352 71.4387Z" fill="#434A54"/>
<path d="M231.315 72.9864C231.441 73.0301 231.552 73.1085 231.636 73.2124C232.107 72.5171 232.585 72.5483 232.694 72.5664C232.681 72.4325 232.659 72.2997 232.628 72.1689C232.357 72.1796 232.094 72.2606 231.863 72.4039C231.633 72.5472 231.444 72.748 231.315 72.9864Z" fill="#656D78"/>
</g>
<defs>
<filter id="filter0_d_88_2367" x="37.2519" y="5.99003" width="16.4411" height="17.5514" filterUnits="userSpaceOnUse" color-interpolation-filters="sRGB">
<feFlood flood-opacity="0" result="BackgroundImageFix"/>
<feColorMatrix in="SourceAlpha" type="matrix" values="0 0 0 0 0 0 0 0 0 0 0 0 0 0 0 0 0 0 127 0" result="hardAlpha"/>
<feOffset dy="3.01705"/>
<feGaussianBlur stdDeviation="3.01705"/>
<feColorMatrix type="matrix" values="0 0 0 0 0 0 0 0 0 0 0 0 0 0 0 0 0 0 0.161 0"/>
<feBlend mode="normal" in2="BackgroundImageFix" result="effect1_dropShadow_88_2367"/>
<feBlend mode="normal" in="SourceGraphic" in2="effect1_dropShadow_88_2367" result="shape"/>
</filter>
<filter id="filter1_d_88_2367" x="86.2192" y="36.438" width="122.017" height="194.323" filterUnits="userSpaceOnUse" color-interpolation-filters="sRGB">
<feFlood flood-opacity="0" result="BackgroundImageFix"/>
<feColorMatrix in="SourceAlpha" type="matrix" values="0 0 0 0 0 0 0 0 0 0 0 0 0 0 0 0 0 0 127 0" result="hardAlpha"/>
<feOffset dx="9" dy="9"/>
<feGaussianBlur stdDeviation="13"/>
<feColorMatrix type="matrix" values="0 0 0 0 1 0 0 0 0 1 0 0 0 0 1 0 0 0 0.302 0"/>
<feBlend mode="normal" in2="BackgroundImageFix" result="effect1_dropShadow_88_2367"/>
<feBlend mode="normal" in="SourceGraphic" in2="effect1_dropShadow_88_2367" result="shape"/>
</filter>
<filter id="filter2_d_88_2367" x="86.2233" y="50.1006" width="53.116" height="52.9763" filterUnits="userSpaceOnUse" color-interpolation-filters="sRGB">
<feFlood flood-opacity="0" result="BackgroundImageFix"/>
<feColorMatrix in="SourceAlpha" type="matrix" values="0 0 0 0 0 0 0 0 0 0 0 0 0 0 0 0 0 0 127 0" result="hardAlpha"/>
<feOffset dx="9" dy="9"/>
<feGaussianBlur stdDeviation="13"/>
<feColorMatrix type="matrix" values="0 0 0 0 1 0 0 0 0 1 0 0 0 0 1 0 0 0 0.302 0"/>
<feBlend mode="normal" in2="BackgroundImageFix" result="effect1_dropShadow_88_2367"/>
<feBlend mode="normal" in="SourceGraphic" in2="effect1_dropShadow_88_2367" result="shape"/>
</filter>
<filter id="filter3_d_88_2367" x="142.01" y="36.438" width="52.9763" height="53.116" filterUnits="userSpaceOnUse" color-interpolation-filters="sRGB">
<feFlood flood-opacity="0" result="BackgroundImageFix"/>
<feColorMatrix in="SourceAlpha" type="matrix" values="0 0 0 0 0 0 0 0 0 0 0 0 0 0 0 0 0 0 127 0" result="hardAlpha"/>
<feOffset dx="9" dy="9"/>
<feGaussianBlur stdDeviation="13"/>
<feColorMatrix type="matrix" values="0 0 0 0 1 0 0 0 0 1 0 0 0 0 1 0 0 0 0.302 0"/>
<feBlend mode="normal" in2="BackgroundImageFix" result="effect1_dropShadow_88_2367"/>
<feBlend mode="normal" in="SourceGraphic" in2="effect1_dropShadow_88_2367" result="shape"/>
</filter>
<filter id="filter4_d_88_2367" x="155.121" y="50.1006" width="53.116" height="52.9763" filterUnits="userSpaceOnUse" color-interpolation-filters="sRGB">
<feFlood flood-opacity="0" result="BackgroundImageFix"/>
<feColorMatrix in="SourceAlpha" type="matrix" values="0 0 0 0 0 0 0 0 0 0 0 0 0 0 0 0 0 0 127 0" result="hardAlpha"/>
<feOffset dx="9" dy="9"/>
<feGaussianBlur stdDeviation="13"/>
<feColorMatrix type="matrix" values="0 0 0 0 1 0 0 0 0 1 0 0 0 0 1 0 0 0 0.302 0"/>
<feBlend mode="normal" in2="BackgroundImageFix" result="effect1_dropShadow_88_2367"/>
<feBlend mode="normal" in="SourceGraphic" in2="effect1_dropShadow_88_2367" result="shape"/>
</filter>
<filter id="filter5_d_88_2367" x="155.123" y="164.118" width="53.116" height="52.9763" filterUnits="userSpaceOnUse" color-interpolation-filters="sRGB">
<feFlood flood-opacity="0" result="BackgroundImageFix"/>
<feColorMatrix in="SourceAlpha" type="matrix" values="0 0 0 0 0 0 0 0 0 0 0 0 0 0 0 0 0 0 127 0" result="hardAlpha"/>
<feOffset dx="9" dy="9"/>
<feGaussianBlur stdDeviation="13"/>
<feColorMatrix type="matrix" values="0 0 0 0 1 0 0 0 0 1 0 0 0 0 1 0 0 0 0.302 0"/>
<feBlend mode="normal" in2="BackgroundImageFix" result="effect1_dropShadow_88_2367"/>
<feBlend mode="normal" in="SourceGraphic" in2="effect1_dropShadow_88_2367" result="shape"/>
</filter>
<filter id="filter6_d_88_2367" x="99.4705" y="177.645" width="52.9763" height="53.116" filterUnits="userSpaceOnUse" color-interpolation-filters="sRGB">
<feFlood flood-opacity="0" result="BackgroundImageFix"/>
<feColorMatrix in="SourceAlpha" type="matrix" values="0 0 0 0 0 0 0 0 0 0 0 0 0 0 0 0 0 0 127 0" result="hardAlpha"/>
<feOffset dx="9" dy="9"/>
<feGaussianBlur stdDeviation="13"/>
<feColorMatrix type="matrix" values="0 0 0 0 1 0 0 0 0 1 0 0 0 0 1 0 0 0 0.302 0"/>
<feBlend mode="normal" in2="BackgroundImageFix" result="effect1_dropShadow_88_2367"/>
<feBlend mode="normal" in="SourceGraphic" in2="effect1_dropShadow_88_2367" result="shape"/>
</filter>
<filter id="filter7_d_88_2367" x="86.2203" y="164.118" width="53.116" height="52.9763" filterUnits="userSpaceOnUse" color-interpolation-filters="sRGB">
<feFlood flood-opacity="0" result="BackgroundImageFix"/>
<feColorMatrix in="SourceAlpha" type="matrix" values="0 0 0 0 0 0 0 0 0 0 0 0 0 0 0 0 0 0 127 0" result="hardAlpha"/>
<feOffset dx="9" dy="9"/>
<feGaussianBlur stdDeviation="13"/>
<feColorMatrix type="matrix" values="0 0 0 0 1 0 0 0 0 1 0 0 0 0 1 0 0 0 0.302 0"/>
<feBlend mode="normal" in2="BackgroundImageFix" result="effect1_dropShadow_88_2367"/>
<feBlend mode="normal" in="SourceGraphic" in2="effect1_dropShadow_88_2367" result="shape"/>
</filter>
<filter id="filter8_d_88_2367" x="101.802" y="84.7537" width="4.41858" height="14.1758" filterUnits="userSpaceOnUse" color-interpolation-filters="sRGB">
<feFlood flood-opacity="0" result="BackgroundImageFix"/>
<feColorMatrix in="SourceAlpha" type="matrix" values="0 0 0 0 0 0 0 0 0 0 0 0 0 0 0 0 0 0 127 0" result="hardAlpha"/>
<feOffset dx="1"/>
<feGaussianBlur stdDeviation="1"/>
<feColorMatrix type="matrix" values="0 0 0 0 1 0 0 0 0 1 0 0 0 0 1 0 0 0 0.078 0"/>
<feBlend mode="normal" in2="BackgroundImageFix" result="effect1_dropShadow_88_2367"/>
<feBlend mode="normal" in="SourceGraphic" in2="effect1_dropShadow_88_2367" result="shape"/>
</filter>
<filter id="filter9_d_88_2367" x="101.802" y="98.2744" width="4.41858" height="14.1758" filterUnits="userSpaceOnUse" color-interpolation-filters="sRGB">
<feFlood flood-opacity="0" result="BackgroundImageFix"/>
<feColorMatrix in="SourceAlpha" type="matrix" values="0 0 0 0 0 0 0 0 0 0 0 0 0 0 0 0 0 0 127 0" result="hardAlpha"/>
<feOffset dx="1"/>
<feGaussianBlur stdDeviation="1"/>
<feColorMatrix type="matrix" values="0 0 0 0 1 0 0 0 0 1 0 0 0 0 1 0 0 0 0.078 0"/>
<feBlend mode="normal" in2="BackgroundImageFix" result="effect1_dropShadow_88_2367"/>
<feBlend mode="normal" in="SourceGraphic" in2="effect1_dropShadow_88_2367" result="shape"/>
</filter>
<filter id="filter10_d_88_2367" x="170.233" y="87.5408" width="4.41858" height="17.3821" filterUnits="userSpaceOnUse" color-interpolation-filters="sRGB">
<feFlood flood-opacity="0" result="BackgroundImageFix"/>
<feColorMatrix in="SourceAlpha" type="matrix" values="0 0 0 0 0 0 0 0 0 0 0 0 0 0 0 0 0 0 127 0" result="hardAlpha"/>
<feOffset dx="-1"/>
<feGaussianBlur stdDeviation="1"/>
<feColorMatrix type="matrix" values="0 0 0 0 1 0 0 0 0 1 0 0 0 0 1 0 0 0 0.078 0"/>
<feBlend mode="normal" in2="BackgroundImageFix" result="effect1_dropShadow_88_2367"/>
<feBlend mode="normal" in="SourceGraphic" in2="effect1_dropShadow_88_2367" result="shape"/>
</filter>
<linearGradient id="paint0_linear_88_2367" x1="104.339" y1="67.5887" x2="103.223" y2="67.5887" gradientUnits="userSpaceOnUse">
<stop stop-color="#5E5E5E"/>
<stop offset="1" stop-color="#AFAFAF"/>
</linearGradient>
<linearGradient id="paint1_linear_88_2367" x1="159.498" y1="53.438" x2="159.498" y2="54.554" gradientUnits="userSpaceOnUse">
<stop stop-color="#5E5E5E"/>
<stop offset="1" stop-color="#AFAFAF"/>
</linearGradient>
<linearGradient id="paint2_linear_88_2367" x1="173.237" y1="67.5887" x2="172.121" y2="67.5887" gradientUnits="userSpaceOnUse">
<stop stop-color="#5E5E5E"/>
<stop offset="1" stop-color="#AFAFAF"/>
</linearGradient>
<linearGradient id="paint3_linear_88_2367" x1="172.123" y1="181.606" x2="173.239" y2="181.606" gradientUnits="userSpaceOnUse">
<stop stop-color="#5E5E5E"/>
<stop offset="1" stop-color="#AFAFAF"/>
</linearGradient>
<linearGradient id="paint4_linear_88_2367" x1="116.47" y1="195.761" x2="117.577" y2="194.793" gradientUnits="userSpaceOnUse">
<stop stop-color="#5E5E5E"/>
<stop offset="1" stop-color="#AFAFAF"/>
</linearGradient>
<linearGradient id="paint5_linear_88_2367" x1="103.22" y1="181.606" x2="104.336" y2="181.606" gradientUnits="userSpaceOnUse">
<stop stop-color="#5E5E5E"/>
<stop offset="1" stop-color="#AFAFAF"/>
</linearGradient>
<linearGradient id="paint6_linear_88_2367" x1="103.012" y1="86.7537" x2="103.012" y2="96.9293" gradientUnits="userSpaceOnUse">
<stop stop-color="#C2C2C2"/>
<stop offset="1" stop-color="#41413F"/>
</linearGradient>
<linearGradient id="paint7_linear_88_2367" x1="103.012" y1="100.274" x2="103.012" y2="110.45" gradientUnits="userSpaceOnUse">
<stop stop-color="#C2C2C2"/>
<stop offset="1" stop-color="#41413F"/>
</linearGradient>
<linearGradient id="paint8_linear_88_2367" x1="173.442" y1="89.5408" x2="173.442" y2="102.923" gradientUnits="userSpaceOnUse">
<stop stop-color="#C2C2C2"/>
<stop offset="1" stop-color="#41413F"/>
</linearGradient>
<linearGradient id="paint9_linear_88_2367" x1="134.482" y1="127.56" x2="128.584" y2="136.772" gradientUnits="userSpaceOnUse">
<stop stop-color="#3A69B2"/>
<stop offset="1" stop-color="#212A5F"/>
</linearGradient>
<linearGradient id="paint10_linear_88_2367" x1="123.834" y1="128.73" x2="123.834" y2="112.993" gradientUnits="userSpaceOnUse">
<stop stop-color="#3A69B2"/>
<stop offset="1" stop-color="#212A5F"/>
</linearGradient>
<linearGradient id="paint11_linear_88_2367" x1="136.32" y1="126.764" x2="146.892" y2="112.512" gradientUnits="userSpaceOnUse">
<stop stop-color="#212A5F"/>
<stop offset="0.52" stop-color="#3A69B2"/>
<stop offset="1" stop-color="#212A5F"/>
</linearGradient>
<linearGradient id="paint12_linear_88_2367" x1="134.656" y1="123.229" x2="145.2" y2="139.148" gradientUnits="userSpaceOnUse">
<stop stop-color="#3A69B2"/>
<stop offset="1" stop-color="#212A5F"/>
</linearGradient>
<linearGradient id="paint13_linear_88_2367" x1="152.371" y1="109.272" x2="152.371" y2="139.878" gradientUnits="userSpaceOnUse">
<stop stop-color="#3A69B2"/>
<stop offset="0.54" stop-color="#223E98"/>
<stop offset="1" stop-color="#3A69B2"/>
</linearGradient>
</defs>
</svg>
